<?xml version="1.0" encoding="utf-8"?>
<!-- Generator: Adobe Illustrator 16.0.0, SVG Export Plug-In . SVG Version: 6.00 Build 0)  -->
<!DOCTYPE svg PUBLIC "-//W3C//DTD SVG 1.1//EN" "http://www.w3.org/Graphics/SVG/1.1/DTD/svg11.dtd">
<svg version="1.1" id="Layer_1" xmlns="http://www.w3.org/2000/svg" xmlns:xlink="http://www.w3.org/1999/xlink" x="0px" y="0px"
	 width="64px" height="64px" viewBox="0 0 64 64" enable-background="new 0 0 64 64" xml:space="preserve">
<path fill="#F36E21" d="M62,39.5C62,51.926,51.926,62,39.5,62h-15C12.073,62,2,51.926,2,39.5v-15C2,12.073,12.073,2,24.5,2h15
	C51.926,2,62,12.073,62,24.5V39.5z"/>
<path fill="none" stroke="#FFFFFF" stroke-width="4" stroke-miterlimit="10" d="M62,39.5C62,51.926,51.926,62,39.5,62h-15
	C12.073,62,2,51.926,2,39.5v-15C2,12.073,12.073,2,24.5,2h15C51.926,2,62,12.073,62,24.5V39.5z"/>
<g>
	<path fill="#FFFFFF" d="M27.041,38.532l-0.055-1.438c-0.166-2.817,0.774-5.691,3.26-8.675c1.768-2.1,3.205-3.868,3.205-5.747
		c0-1.934-1.271-3.205-4.034-3.315c-1.823,0-4.034,0.663-5.471,1.657l-1.878-6.023c1.989-1.16,5.305-2.265,9.228-2.265
		c7.295,0,10.609,4.034,10.609,8.62c0,4.199-2.598,6.962-4.697,9.283c-2.044,2.266-2.873,4.422-2.817,6.906v0.996H27.041z
		 M25.604,46.156c0-2.928,2.044-5.026,4.917-5.026c2.985,0,4.917,2.099,4.973,5.026c0,2.873-1.988,5.029-4.973,5.029
		C27.594,51.186,25.604,49.029,25.604,46.156z"/>
</g>
</svg>
