<?xml version="1.0" encoding="utf-8"?>
<!-- Generator: Adobe Illustrator 16.0.0, SVG Export Plug-In . SVG Version: 6.00 Build 0)  -->
<!DOCTYPE svg PUBLIC "-//W3C//DTD SVG 1.1//EN" "http://www.w3.org/Graphics/SVG/1.1/DTD/svg11.dtd">
<svg version="1.1" xmlns="http://www.w3.org/2000/svg" xmlns:xlink="http://www.w3.org/1999/xlink" x="0px" y="0px" width="164px"
	 height="108px" viewBox="0 0 164 108" enable-background="new 0 0 164 108" xml:space="preserve">
<g id="Layer_1">
	<g display="none" opacity="0.5">
		<path display="inline" d="M12,106.5c-5.79,0-10.5-4.71-10.5-10.5V12C1.5,6.21,6.21,1.5,12,1.5h140c5.79,0,10.5,4.71,10.5,10.5v84
			c0,5.79-4.71,10.5-10.5,10.5H12z"/>
		<path display="inline" fill="#FFFFFF" d="M152,3c4.963,0,9,4.038,9,9v84c0,4.963-4.037,9-9,9H12c-4.962,0-9-4.037-9-9V12
			c0-4.962,4.038-9,9-9H152 M152,0H12C5.373,0,0,5.373,0,12v84c0,6.627,5.373,12,12,12h140c6.627,0,12-5.373,12-12V12
			C164,5.373,158.627,0,152,0L152,0z"/>
	</g>
	<path opacity="0.3" fill="#020202" d="M110.82,39.063c0,8.68-7.038,15.718-15.718,15.718H84.624
		c-8.682,0-15.719-7.038-15.719-15.718V28.584c0-8.681,7.037-15.718,15.719-15.718h10.479c8.68,0,15.718,7.037,15.718,15.718V39.063
		z"/>
	<path opacity="0.3" fill="#020202" d="M110.82,88.282c0,8.68-7.038,15.718-15.718,15.718H84.624
		c-8.682,0-15.719-7.038-15.719-15.718V77.803c0-8.681,7.037-15.718,15.719-15.718h10.479c8.68,0,15.718,7.037,15.718,15.718V88.282
		z"/>
	<path opacity="0.3" fill="#020202" d="M159.616,88.282c0,8.68-7.038,15.718-15.719,15.718h-10.479
		c-8.682,0-15.718-7.038-15.718-15.718V77.803c0-8.681,7.036-15.718,15.718-15.718h10.479c8.681,0,15.719,7.037,15.719,15.718
		V88.282z"/>
	<path opacity="0.3" fill="#020202" d="M62.025,88.282c0,8.68-7.038,15.718-15.718,15.718H35.829
		c-8.681,0-15.718-7.038-15.718-15.718V77.803c0-8.681,7.037-15.718,15.718-15.718h10.479c8.681,0,15.718,7.037,15.718,15.718
		V88.282z"/>
</g>
<g id="Layer_2">
	<path fill="#6B6B6B" d="M86.741,7.468c8.68,0,15.718,7.038,15.718,15.718v10.479c0,8.681-7.038,15.718-15.718,15.718H76.262
		c-8.681,0-15.718-7.037-15.718-15.718V23.187c0-8.681,7.037-15.718,15.718-15.718H86.741z"/>
	<path fill="none" stroke="#FFFFFF" stroke-width="2.7943" stroke-miterlimit="10" d="M86.741,7.468
		c8.68,0,15.718,7.038,15.718,15.718v10.479c0,8.681-7.038,15.718-15.718,15.718H76.262c-8.681,0-15.718-7.037-15.718-15.718V23.187
		c0-8.681,7.037-15.718,15.718-15.718H86.741z"/>
	<g>
		<g>
			
				<line fill="none" stroke="#FFFFFF" stroke-width="4.1915" stroke-miterlimit="10" x1="81.501" y1="22.412" x2="81.501" y2="41.604"/>
			<g>
				<polygon fill="#FFFFFF" points="74.187,24.552 81.501,11.884 88.816,24.552 				"/>
			</g>
		</g>
	</g>
	<path fill="#6B6B6B" d="M76.262,99.871c-8.681,0-15.718-7.038-15.718-15.718V73.675c0-8.682,7.038-15.719,15.718-15.719h10.479
		c8.681,0,15.718,7.037,15.718,15.719v10.479c0,8.68-7.037,15.718-15.718,15.718H76.262z"/>
	<path fill="none" stroke="#FFFFFF" stroke-width="2.7943" stroke-miterlimit="10" d="M76.262,99.871
		c-8.681,0-15.718-7.038-15.718-15.718V73.675c0-8.682,7.038-15.719,15.718-15.719h10.479c8.681,0,15.718,7.037,15.718,15.719
		v10.479c0,8.68-7.037,15.718-15.718,15.718H76.262z"/>
	<g>
		<g>
			
				<line fill="none" stroke="#FFFFFF" stroke-width="4.1915" stroke-miterlimit="10" x1="81.501" y1="83.021" x2="81.501" y2="63.83"/>
			<g>
				<polygon fill="#FFFFFF" points="88.816,80.881 81.501,93.549 74.187,80.881 				"/>
			</g>
		</g>
	</g>
	<path fill="#6B6B6B" d="M151.836,84.152c0,8.681-7.039,15.718-15.719,15.718h-10.479c-8.682,0-15.718-7.037-15.718-15.718V73.674
		c0-8.682,7.036-15.719,15.718-15.719h10.479c8.68,0,15.719,7.037,15.719,15.719V84.152z"/>
	<path fill="none" stroke="#FFFFFF" stroke-width="2.7943" stroke-miterlimit="10" d="M151.836,84.152
		c0,8.681-7.039,15.718-15.719,15.718h-10.479c-8.682,0-15.718-7.037-15.718-15.718V73.674c0-8.682,7.036-15.719,15.718-15.719
		h10.479c8.68,0,15.719,7.037,15.719,15.719V84.152z"/>
	<g>
		<g>
			
				<line fill="none" stroke="#FFFFFF" stroke-width="4.1915" stroke-miterlimit="10" x1="134.986" y1="78.913" x2="115.795" y2="78.913"/>
			<g>
				<polygon fill="#FFFFFF" points="132.846,71.598 145.514,78.913 132.846,86.229 				"/>
			</g>
		</g>
	</g>
	<path fill="#6B6B6B" d="M11.166,73.45c0-8.681,7.039-15.718,15.718-15.718h10.479c8.682,0,15.718,7.037,15.718,15.718v10.479
		c0,8.682-7.037,15.719-15.718,15.719H26.884c-8.68,0-15.718-7.037-15.718-15.719V73.45z"/>
	<path fill="none" stroke="#FFFFFF" stroke-width="2.7943" stroke-miterlimit="10" d="M11.166,73.45
		c0-8.681,7.039-15.718,15.718-15.718h10.479c8.682,0,15.718,7.037,15.718,15.718v10.479c0,8.682-7.037,15.719-15.718,15.719H26.884
		c-8.68,0-15.718-7.037-15.718-15.719V73.45z"/>
	<g>
		<g>
			
				<line fill="none" stroke="#FFFFFF" stroke-width="4.1915" stroke-miterlimit="10" x1="28.016" y1="78.689" x2="47.207" y2="78.689"/>
			<g>
				<polygon fill="#FFFFFF" points="30.156,86.005 17.488,78.689 30.156,71.374 				"/>
			</g>
		</g>
	</g>
</g>
</svg>
