<?xml version="1.0" encoding="utf-8"?>
<!-- Generator: Adobe Illustrator 16.0.0, SVG Export Plug-In . SVG Version: 6.00 Build 0)  -->
<!DOCTYPE svg PUBLIC "-//W3C//DTD SVG 1.1//EN" "http://www.w3.org/Graphics/SVG/1.1/DTD/svg11.dtd">
<svg version="1.1" id="Layer_1" xmlns="http://www.w3.org/2000/svg" xmlns:xlink="http://www.w3.org/1999/xlink" x="0px" y="0px"
	 width="64px" height="64px" viewBox="0 0 64 64" enable-background="new 0 0 64 64" xml:space="preserve">
<path fill="#FF6D00" d="M62,39.5C62,51.926,51.926,62,39.5,62h-15C12.073,62,2,51.926,2,39.5v-15C2,12.073,12.073,2,24.5,2h15
	C51.926,2,62,12.073,62,24.5V39.5z"/>
<path fill="none" stroke="#FFFFFF" stroke-width="4" stroke-miterlimit="10" d="M62,39.5C62,51.926,51.926,62,39.5,62h-15
	C12.073,62,2,51.926,2,39.5v-15C2,12.073,12.073,2,24.5,2h15C51.926,2,62,12.073,62,24.5V39.5z"/>
<polyline fill="none" stroke="#FFFFFF" stroke-width="2" stroke-miterlimit="10" points="13,33.625 20.375,56.375 29.5,40.375 
	14,33.625 16.625,28.75 11.5,28.75 19,20.25 23.125,23.625 28.125,10.75 22.625,6.125 16.375,12.25 11.5,8.125 "/>
<polyline fill="none" stroke="#FFFFFF" stroke-width="2" stroke-miterlimit="10" points="54.5,53.125 50.875,38.125 43.25,32.75 
	47.875,25.125 59.25,23.125 "/>
<polyline fill="none" stroke="#FFFFFF" stroke-width="2" stroke-miterlimit="10" points="58.25,19.375 53,17.75 53,20.938 
	51.25,19.75 45.875,23.125 43.25,18.75 47.375,15.125 55.25,12.875 "/>
<polyline fill="none" stroke="#FFFFFF" stroke-width="2" stroke-miterlimit="10" points="49.5,7 47.875,11.625 52.875,9.313 "/>
<polyline fill="none" stroke="#FFFFFF" stroke-width="2" stroke-miterlimit="10" points="11.5,28.75 10.75,20.5 6.25,16.875 "/>
<circle fill="#6B6B6B" cx="48.42" cy="47.479" r="5"/>
<path fill="none" stroke="#6B6B6B" stroke-width="4" stroke-miterlimit="10" d="M28.751,52.479c0,0,1.658-20.912,24.075-21.056"/>
<path fill="none" stroke="#6B6B6B" stroke-width="4" stroke-miterlimit="10" d="M14.152,52.541c0,0,2.68-33.891,38.911-34.124"/>
</svg>
