<?xml version="1.0" encoding="utf-8"?>
<!-- Generator: Adobe Illustrator 16.0.0, SVG Export Plug-In . SVG Version: 6.00 Build 0)  -->
<!DOCTYPE svg PUBLIC "-//W3C//DTD SVG 1.1//EN" "http://www.w3.org/Graphics/SVG/1.1/DTD/svg11.dtd">
<svg version="1.1" id="Layer_1" xmlns="http://www.w3.org/2000/svg" xmlns:xlink="http://www.w3.org/1999/xlink" x="0px" y="0px"
	 width="200px" height="200px" viewBox="-50 -50 200 200" enable-background="new -50 -50 200 200" xml:space="preserve">
<g id="Layer_1_1_">
	<g>
		<g>
			<path fill="none" stroke="#000000" stroke-miterlimit="10" d="M49.895-50.599c55.415,0,100.258,44.842,100.258,100.26
				c0,55.417-44.843,100.257-100.258,100.257c-55.417,0-100.26-44.844-100.26-100.257C-50.365-5.755-5.523-50.599,49.895-50.599z"/>
			<path fill="none" stroke="#000000" stroke-miterlimit="10" d="M-33.673,49.661c0,46.164,37.401,83.564,83.565,83.564
				c46.164,0,83.567-37.404,83.567-83.564c0-46.165-37.399-83.565-83.567-83.565C3.726-33.904-33.673,3.494-33.673,49.661z"/>
			<path fill="none" stroke="#000000" stroke-miterlimit="10" d="M49.895-17.163c36.961,0,66.824,29.863,66.824,66.824
				c0,36.96-29.863,66.821-66.824,66.821s-66.823-29.861-66.823-66.824S12.932-17.163,49.895-17.163z"/>
			<path fill="none" stroke="#000000" stroke-miterlimit="10" d="M-0.236,49.661c0,27.707,22.42,50.128,50.128,50.128
				c27.71,0,50.132-22.421,50.132-50.128c0-27.708-22.422-50.132-50.13-50.132C22.185-0.471-0.236,21.953-0.236,49.661z"/>
			<path fill="none" stroke="#000000" stroke-miterlimit="10" d="M49.895,16.224c18.457,0,33.435,14.98,33.435,33.437
				c0,18.456-14.978,33.436-33.435,33.436S16.458,68.117,16.458,49.661C16.458,31.204,31.438,16.224,49.895,16.224z"/>
			<path fill="none" stroke="#000000" stroke-miterlimit="10" d="M33.2,49.661c0,9.253,7.442,16.694,16.695,16.694
				c9.254,0,16.691-7.441,16.691-16.694c0-9.253-7.438-16.695-16.691-16.695C40.642,32.966,33.2,40.408,33.2,49.661z"/>
		</g>
		<g>
			<line fill="none" stroke="#000000" stroke-miterlimit="10" x1="49.895" y1="49.661" x2="-45.469" y2="18.671"/>
			<line fill="none" stroke="#000000" stroke-miterlimit="10" x1="49.895" y1="49.661" x2="-9.047" y2="130.777"/>
			<line fill="none" stroke="#000000" stroke-miterlimit="10" x1="108.835" y1="130.777" x2="49.895" y2="49.661"/>
			<polyline fill="none" stroke="#000000" stroke-miterlimit="10" points="145.257,18.671 49.895,49.661 49.895,48.201 
				49.895,-50.599 49.895,49.661 			"/>
		</g>
	</g>
</g>
</svg>
