<?xml version="1.0" encoding="utf-8"?>
<!-- Generator: Adobe Illustrator 16.0.0, SVG Export Plug-In . SVG Version: 6.00 Build 0)  -->
<!DOCTYPE svg PUBLIC "-//W3C//DTD SVG 1.1//EN" "http://www.w3.org/Graphics/SVG/1.1/DTD/svg11.dtd">
<svg version="1.1" id="Layer_1" xmlns="http://www.w3.org/2000/svg" xmlns:xlink="http://www.w3.org/1999/xlink" x="0px" y="0px"
	 width="100px" height="100px" viewBox="0 0 100 100" enable-background="new 0 0 100 100" xml:space="preserve">
<g id="Layer_1_1_">
	<g>
		<g>
			<path fill="none" stroke="#000000" stroke-miterlimit="10" d="M49.894,0.901c26.95,0,48.758,21.808,48.758,48.759
				S76.844,98.418,49.894,98.418c-26.951,0-48.759-21.809-48.759-48.758C1.135,22.71,22.943,0.901,49.894,0.901z"/>
			<path fill="none" stroke="#000000" stroke-miterlimit="10" d="M9.253,49.66c0,22.451,18.189,40.64,40.64,40.64
				c22.451,0,40.641-18.19,40.641-40.64c0-22.451-18.188-40.64-40.641-40.64C27.441,9.02,9.253,27.208,9.253,49.66z"/>
			<path fill="none" stroke="#000000" stroke-miterlimit="10" d="M49.894,17.162c17.975,0,32.499,14.523,32.499,32.498
				c0,17.975-14.524,32.497-32.499,32.497c-17.975,0-32.498-14.522-32.498-32.498C17.396,31.683,31.918,17.162,49.894,17.162z"/>
			<path fill="none" stroke="#000000" stroke-miterlimit="10" d="M25.514,49.66c0,13.475,10.904,24.379,24.379,24.379
				c13.476,0,24.38-10.904,24.38-24.379c0-13.475-10.904-24.38-24.379-24.38C36.418,25.28,25.514,36.185,25.514,49.66z"/>
			<path fill="none" stroke="#000000" stroke-miterlimit="10" d="M49.894,33.399c8.976,0,16.26,7.285,16.26,16.261
				c0,8.976-7.284,16.261-16.26,16.261S33.633,58.636,33.633,49.66C33.633,40.684,40.918,33.399,49.894,33.399z"/>
			<path fill="none" stroke="#000000" stroke-miterlimit="10" d="M41.775,49.66c0,4.5,3.619,8.119,8.119,8.119
				c4.5,0,8.118-3.619,8.118-8.119s-3.617-8.119-8.118-8.119C45.394,41.541,41.775,45.16,41.775,49.66z"/>
		</g>
		<g>
			<line fill="none" stroke="#000000" stroke-miterlimit="10" x1="49.894" y1="49.66" x2="3.516" y2="34.589"/>
			<line fill="none" stroke="#000000" stroke-miterlimit="10" x1="49.894" y1="49.66" x2="21.229" y2="89.109"/>
			<line fill="none" stroke="#000000" stroke-miterlimit="10" x1="78.559" y1="89.109" x2="49.894" y2="49.66"/>
			<polyline fill="none" stroke="#000000" stroke-miterlimit="10" points="96.271,34.589 49.894,49.66 49.894,48.95 49.894,0.901 
				49.894,49.66 			"/>
		</g>
	</g>
</g>
</svg>
