<?xml version="1.0" encoding="utf-8"?>
<!-- Generator: Adobe Illustrator 16.0.0, SVG Export Plug-In . SVG Version: 6.00 Build 0)  -->
<!DOCTYPE svg PUBLIC "-//W3C//DTD SVG 1.1//EN" "http://www.w3.org/Graphics/SVG/1.1/DTD/svg11.dtd">
<svg version="1.1" id="Layer_1" xmlns="http://www.w3.org/2000/svg" xmlns:xlink="http://www.w3.org/1999/xlink" x="0px" y="0px"
	 width="32px" height="32px" viewBox="0 0 32 32" enable-background="new 0 0 32 32" xml:space="preserve">
<path fill="none" stroke="#FF6D00" stroke-width="1.446" stroke-miterlimit="10" d="M26.765,12.015
	c0,4.563-2.839,8.462-6.847,10.029C18.704,22.519,17.382,30.25,16,30.25c-1.171,0-2.299-7.658-3.354-8.004
	c-4.303-1.409-7.41-5.458-7.41-10.231C5.235,6.069,10.054,1.25,16,1.25C21.944,1.25,26.765,6.069,26.765,12.015z"/>
<circle fill="#FF6D00" cx="16" cy="12.015" r="7.551"/>
<g>
	<path fill="#FFFFFF" d="M11.313,10.352h-0.017l-1.016,0.483l-0.205-0.934l1.409-0.656h1.033v5.326h-1.205V10.352z"/>
	<path fill="#FFFFFF" d="M18.203,11.883c0,1.647-0.664,2.777-2.024,2.777c-1.376,0-1.983-1.237-1.991-2.745
		c0-1.54,0.656-2.761,2.032-2.761C17.646,9.155,18.203,10.425,18.203,11.883z M15.442,11.916c-0.008,1.221,0.287,1.803,0.77,1.803
		s0.745-0.606,0.745-1.819c0-1.18-0.253-1.803-0.753-1.803C15.745,10.097,15.434,10.679,15.442,11.916z"/>
	<path fill="#FFFFFF" d="M20.407,10.352h-0.017l-1.016,0.483l-0.204-0.934l1.408-0.656h1.032v5.326h-1.204V10.352z"/>
</g>
</svg>
