<?xml version="1.0" encoding="utf-8"?>
<!-- Generator: Adobe Illustrator 16.0.0, SVG Export Plug-In . SVG Version: 6.00 Build 0)  -->
<!DOCTYPE svg PUBLIC "-//W3C//DTD SVG 1.1//EN" "http://www.w3.org/Graphics/SVG/1.1/DTD/svg11.dtd">
<svg version="1.1" id="Layer_1" xmlns="http://www.w3.org/2000/svg" xmlns:xlink="http://www.w3.org/1999/xlink" x="0px" y="0px"
	 width="32px" height="32px" viewBox="0 0 32 32" enable-background="new 0 0 32 32" xml:space="preserve">
<path fill="none" stroke="#6B6B6B" stroke-width="1.446" stroke-miterlimit="10" d="M26.766,12.265c0,4.563-2.84,8.461-6.847,10.029
	C18.704,22.77,17.382,30.5,16,30.5c-1.171,0-2.299-7.658-3.354-8.004c-4.303-1.41-7.41-5.458-7.41-10.231
	C5.235,6.319,10.055,1.5,16,1.5C21.945,1.5,26.766,6.319,26.766,12.265z"/>
<circle fill="#6B6B6B" cx="16" cy="12.265" r="7.551"/>
<g>
	<path fill="#FFFFFF" d="M13.968,14.763v-1.27h-2.36v-0.811l2.016-3.245h1.524v3.122h0.64v0.934h-0.64v1.27H13.968z M13.968,12.559
		v-1.18c0-0.319,0.016-0.647,0.041-0.991h-0.033c-0.172,0.344-0.312,0.655-0.492,0.991l-0.713,1.164v0.016H13.968z"/>
	<path fill="#FFFFFF" d="M19.712,10.322c-0.14-0.008-0.287,0-0.483,0.017c-1.105,0.09-1.599,0.655-1.737,1.278h0.024
		c0.264-0.27,0.631-0.426,1.131-0.426c0.894,0,1.646,0.63,1.646,1.737c0,1.057-0.811,1.925-1.966,1.925
		c-1.417,0-2.114-1.057-2.114-2.327c0-0.999,0.369-1.835,0.941-2.367c0.533-0.483,1.222-0.746,2.058-0.787
		c0.229-0.016,0.376-0.016,0.5-0.008V10.322z M19.031,12.993c0-0.492-0.262-0.918-0.795-0.918c-0.336,0-0.614,0.206-0.737,0.476
		c-0.032,0.065-0.048,0.164-0.048,0.312c0.023,0.565,0.294,1.073,0.857,1.073C18.753,13.936,19.031,13.534,19.031,12.993z"/>
</g>
</svg>
