<?xml version="1.0" encoding="utf-8"?>
<!-- Generator: Adobe Illustrator 16.0.0, SVG Export Plug-In . SVG Version: 6.00 Build 0)  -->
<!DOCTYPE svg PUBLIC "-//W3C//DTD SVG 1.1//EN" "http://www.w3.org/Graphics/SVG/1.1/DTD/svg11.dtd">
<svg version="1.1" id="Layer_1" xmlns="http://www.w3.org/2000/svg" xmlns:xlink="http://www.w3.org/1999/xlink" x="0px" y="0px"
	 width="32px" height="32px" viewBox="0 0 32 32" enable-background="new 0 0 32 32" xml:space="preserve">
<path fill="#F36E21" d="M31,19.75C31,25.963,25.963,31,19.75,31h-7.5C6.037,31,1,25.963,1,19.75v-7.5C1,6.037,6.037,1,12.25,1h7.5
	C25.963,1,31,6.037,31,12.25V19.75z"/>
<path fill="none" stroke="#FFFFFF" stroke-width="2" stroke-miterlimit="10" d="M31,19.75C31,25.963,25.963,31,19.75,31h-7.5
	C6.037,31,1,25.963,1,19.75v-7.5C1,6.037,6.037,1,12.25,1h7.5C25.963,1,31,6.037,31,12.25V19.75z"/>
<g>
	<path fill="#FFFFFF" d="M13.521,19.266l-0.027-0.719c-0.083-1.408,0.387-2.845,1.63-4.337c0.884-1.05,1.603-1.934,1.603-2.873
		c0-0.967-0.636-1.603-2.017-1.658c-0.912,0-2.017,0.332-2.735,0.829l-0.939-3.012c0.994-0.58,2.652-1.133,4.614-1.133
		c3.647,0,5.305,2.017,5.305,4.311c0,2.099-1.299,3.481-2.35,4.641c-1.021,1.133-1.436,2.21-1.408,3.453v0.498H13.521z
		 M12.802,23.078c0-1.464,1.022-2.514,2.458-2.514c1.493,0,2.459,1.05,2.487,2.514c0,1.437-0.995,2.515-2.487,2.515
		C13.797,25.593,12.802,24.515,12.802,23.078z"/>
</g>
</svg>
