<?xml version="1.0" encoding="utf-8"?>
<!-- Generator: Adobe Illustrator 16.0.0, SVG Export Plug-In . SVG Version: 6.00 Build 0)  -->
<!DOCTYPE svg PUBLIC "-//W3C//DTD SVG 1.1//EN" "http://www.w3.org/Graphics/SVG/1.1/DTD/svg11.dtd">
<svg version="1.1" id="Layer_1" xmlns="http://www.w3.org/2000/svg" xmlns:xlink="http://www.w3.org/1999/xlink" x="0px" y="0px"
	 width="32px" height="32px" viewBox="0 0 32 32" enable-background="new 0 0 32 32" xml:space="preserve">
<path fill="#6B6B6B" d="M31,19.75C31,25.963,25.963,31,19.75,31h-7.5C6.037,31,1,25.963,1,19.75v-7.5C1,6.037,6.037,1,12.25,1h7.5
	C25.963,1,31,6.037,31,12.25V19.75z"/>
<path fill="none" stroke="#FFFFFF" stroke-width="2" stroke-miterlimit="10" d="M31,19.75C31,25.963,25.963,31,19.75,31h-7.5
	C6.037,31,1,25.963,1,19.75v-7.5C1,6.037,6.037,1,12.25,1h7.5C25.963,1,31,6.037,31,12.25V19.75z"/>
<path fill="none" stroke="#FFFFFF" stroke-width="2" stroke-miterlimit="10" d="M26.563,18.813"/>
<rect x="11.125" y="13.625" fill="none" stroke="#FFFFFF" stroke-miterlimit="10" width="9.688" height="9.125"/>
<polyline fill="none" stroke="#FFFFFF" stroke-miterlimit="10" points="8.25,15.125 16,6.625 23.875,15.125 "/>
</svg>
