<?xml version="1.0" encoding="utf-8"?>
<!-- Generator: Adobe Illustrator 16.0.0, SVG Export Plug-In . SVG Version: 6.00 Build 0)  -->
<!DOCTYPE svg PUBLIC "-//W3C//DTD SVG 1.1//EN" "http://www.w3.org/Graphics/SVG/1.1/DTD/svg11.dtd">
<svg version="1.1" id="Layer_1" xmlns="http://www.w3.org/2000/svg" xmlns:xlink="http://www.w3.org/1999/xlink" x="0px" y="0px"
	 width="32px" height="32px" viewBox="0 0 32 32" enable-background="new 0 0 32 32" xml:space="preserve">
<path fill="none" stroke="#5B5B5B" stroke-width="1.5955" stroke-miterlimit="10" d="M27.878,12.628
	c0,5.034-3.132,9.337-7.555,11.066c-1.34,0.524-2.798,9.056-4.324,9.056c-1.292,0-2.537-8.45-3.702-8.832
	c-4.748-1.555-8.177-6.022-8.176-11.29C4.122,6.068,9.439,0.75,16,0.75S27.878,6.068,27.878,12.628z"/>
<circle fill="#5B5B5B" cx="16" cy="12.628" r="8.333"/>
<g>
	<path fill="#FFFFFF" d="M9.326,14.586c0.239,0.153,0.794,0.392,1.379,0.392c1.082,0,1.417-0.689,1.408-1.207
		c-0.01-0.871-0.795-1.245-1.609-1.245h-0.469v-0.632h0.469c0.613,0,1.389-0.316,1.389-1.054c0-0.498-0.316-0.938-1.092-0.938
		c-0.498,0-0.977,0.22-1.245,0.412l-0.22-0.613c0.325-0.239,0.957-0.479,1.627-0.479c1.226,0,1.781,0.728,1.781,1.484
		c0,0.642-0.383,1.188-1.149,1.465v0.02c0.766,0.153,1.388,0.728,1.388,1.599c0,0.996-0.775,1.867-2.269,1.867
		c-0.699,0-1.312-0.22-1.619-0.421L9.326,14.586z"/>
	<path fill="#FFFFFF" d="M17.589,9.922c-0.173-0.009-0.393,0-0.632,0.039c-1.321,0.22-2.021,1.188-2.164,2.212h0.029
		c0.297-0.393,0.814-0.718,1.503-0.718c1.101,0,1.876,0.795,1.876,2.011c0,1.139-0.775,2.193-2.068,2.193
		c-1.332,0-2.203-1.034-2.203-2.653c0-1.226,0.44-2.192,1.053-2.806c0.517-0.507,1.207-0.823,1.992-0.919
		c0.249-0.039,0.46-0.048,0.613-0.048V9.922z M17.35,13.514c0-0.891-0.508-1.427-1.284-1.427c-0.507,0-0.977,0.316-1.207,0.766
		c-0.058,0.096-0.096,0.22-0.096,0.373c0.02,1.025,0.489,1.781,1.37,1.781C16.861,15.007,17.35,14.404,17.35,13.514z"/>
	<path fill="#FFFFFF" d="M23.084,12.374c0,2.116-0.785,3.285-2.164,3.285c-1.217,0-2.04-1.14-2.06-3.199
		c0-2.087,0.901-3.236,2.164-3.236C22.337,9.224,23.084,10.392,23.084,12.374z M19.703,12.47c0,1.619,0.499,2.538,1.264,2.538
		c0.862,0,1.274-1.005,1.274-2.595c0-1.532-0.394-2.538-1.264-2.538C20.24,9.875,19.703,10.775,19.703,12.47z"/>
</g>
</svg>
