<?xml version="1.0" encoding="utf-8"?>
<!-- Generator: Adobe Illustrator 16.0.0, SVG Export Plug-In . SVG Version: 6.00 Build 0)  -->
<!DOCTYPE svg PUBLIC "-//W3C//DTD SVG 1.1//EN" "http://www.w3.org/Graphics/SVG/1.1/DTD/svg11.dtd">
<svg version="1.1" id="Layer_1" xmlns="http://www.w3.org/2000/svg" xmlns:xlink="http://www.w3.org/1999/xlink" x="0px" y="0px"
	 width="32px" height="32px" viewBox="0 0 32 32" enable-background="new 0 0 32 32" xml:space="preserve">
<path fill="none" stroke="#FF6D00" stroke-width="1.5955" stroke-miterlimit="10" d="M27.878,12.628
	c0,5.034-3.132,9.337-7.555,11.066c-1.34,0.524-2.798,9.056-4.324,9.056c-1.292,0-2.537-8.45-3.702-8.832
	c-4.748-1.555-8.177-6.022-8.176-11.29C4.122,6.068,9.439,0.75,16,0.75S27.878,6.068,27.878,12.628z"/>
<circle fill="#FF6D00" cx="16" cy="12.628" r="8.333"/>
<g>
	<path fill="#FFFFFF" d="M14.415,15.06l-0.018-0.47c-0.054-0.922,0.253-1.863,1.066-2.839c0.579-0.687,1.049-1.266,1.049-1.881
		c0-0.633-0.416-1.048-1.32-1.084c-0.597,0-1.32,0.217-1.79,0.542l-0.615-1.971c0.651-0.38,1.736-0.742,3.02-0.742
		c2.387,0,3.471,1.32,3.471,2.821c0,1.374-0.85,2.278-1.536,3.038c-0.669,0.741-0.94,1.446-0.922,2.26v0.326H14.415z M13.945,17.555
		c0-0.958,0.669-1.645,1.609-1.645c0.976,0,1.608,0.688,1.627,1.645c0,0.94-0.651,1.646-1.627,1.646
		C14.596,19.2,13.945,18.495,13.945,17.555z"/>
</g>
</svg>
