<?xml version="1.0" encoding="utf-8"?>
<!-- Generator: Adobe Illustrator 16.0.0, SVG Export Plug-In . SVG Version: 6.00 Build 0)  -->
<!DOCTYPE svg PUBLIC "-//W3C//DTD SVG 1.1//EN" "http://www.w3.org/Graphics/SVG/1.1/DTD/svg11.dtd">
<svg version="1.1" id="Layer_1" xmlns="http://www.w3.org/2000/svg" xmlns:xlink="http://www.w3.org/1999/xlink" x="0px" y="0px"
	 width="32px" height="32px" viewBox="16 16 32 32" enable-background="new 16 16 32 32" xml:space="preserve">
<path fill="#FF6D00" d="M47,35.75C47,41.963,41.963,47,35.75,47h-7.5C22.036,47,17,41.963,17,35.75v-7.5
	C17,22.037,22.036,17,28.25,17h7.5C41.963,17,47,22.037,47,28.25V35.75z"/>
<path fill="none" stroke="#FFFFFF" stroke-width="2" stroke-miterlimit="10" d="M47,35.75C47,41.963,41.963,47,35.75,47h-7.5
	C22.036,47,17,41.963,17,35.75v-7.5C17,22.037,22.036,17,28.25,17h7.5C41.963,17,47,22.037,47,28.25V35.75z"/>
<polyline fill="none" stroke="#FFFFFF" stroke-width="1" stroke-miterlimit="10" points="22.5,32.813 26.188,44.188 30.75,36.188 
	23,32.813 24.313,30.375 21.75,30.375 25.5,26.125 27.563,27.813 30.063,21.375 27.313,19.063 24.188,22.125 21.75,20.063 "/>
<polyline fill="none" stroke="#FFFFFF" stroke-width="1" stroke-miterlimit="10" points="43.25,42.563 41.438,35.063 37.625,32.375 
	39.938,28.563 45.625,27.563 "/>
<polyline fill="none" stroke="#FFFFFF" stroke-width="1" stroke-miterlimit="10" points="45.125,25.688 42.5,24.875 42.5,26.469 
	41.625,25.875 38.938,27.563 37.625,25.375 39.688,23.563 43.625,22.438 "/>
<polyline fill="none" stroke="#FFFFFF" stroke-width="1" stroke-miterlimit="10" points="40.75,19.5 39.938,21.813 42.438,20.656 
	"/>
<polyline fill="none" stroke="#FFFFFF" stroke-width="1" stroke-miterlimit="10" points="21.75,30.375 21.375,26.25 19.125,24.438 
	"/>
</svg>
