<?xml version="1.0" encoding="utf-8"?>
<!-- Generator: Adobe Illustrator 16.0.0, SVG Export Plug-In . SVG Version: 6.00 Build 0)  -->
<!DOCTYPE svg PUBLIC "-//W3C//DTD SVG 1.1//EN" "http://www.w3.org/Graphics/SVG/1.1/DTD/svg11.dtd">
<svg version="1.1" id="Layer_1" xmlns="http://www.w3.org/2000/svg" xmlns:xlink="http://www.w3.org/1999/xlink" x="0px" y="0px"
	 width="32px" height="32px" viewBox="0 0 32 32" enable-background="new 0 0 32 32" xml:space="preserve">
<path fill="#6B6B6B" d="M31,19.75C31,25.963,25.963,31,19.75,31h-7.5C6.037,31,1,25.963,1,19.75v-7.5C1,6.037,6.037,1,12.25,1h7.5
	C25.963,1,31,6.037,31,12.25V19.75z"/>
<path fill="none" stroke="#FFFFFF" stroke-width="2" stroke-miterlimit="10" d="M31,19.75C31,25.963,25.963,31,19.75,31h-7.5
	C6.037,31,1,25.963,1,19.75v-7.5C1,6.037,6.037,1,12.25,1h7.5C25.963,1,31,6.037,31,12.25V19.75z"/>
<polyline fill="none" stroke="#FFFFFF" stroke-miterlimit="10" points="6.5,16.813 10.188,28.188 14.75,20.188 7,16.813 
	8.313,14.375 5.75,14.375 9.5,10.125 11.563,11.813 14.063,5.375 11.313,3.063 8.188,6.125 5.75,4.063 "/>
<polyline fill="none" stroke="#FFFFFF" stroke-miterlimit="10" points="27.25,26.563 25.438,19.063 21.625,16.375 23.938,12.563 
	29.625,11.563 "/>
<polyline fill="none" stroke="#FFFFFF" stroke-miterlimit="10" points="29.125,9.688 26.5,8.875 26.5,10.469 25.625,9.875 
	22.938,11.563 21.625,9.375 23.688,7.563 27.625,6.438 "/>
<polyline fill="none" stroke="#FFFFFF" stroke-miterlimit="10" points="24.75,3.5 23.938,5.813 26.438,4.656 "/>
<polyline fill="none" stroke="#FFFFFF" stroke-miterlimit="10" points="5.75,14.375 5.375,10.25 3.125,8.438 "/>
</svg>
