<?xml version="1.0" encoding="utf-8"?>
<!-- Generator: Adobe Illustrator 16.0.0, SVG Export Plug-In . SVG Version: 6.00 Build 0)  -->
<!DOCTYPE svg PUBLIC "-//W3C//DTD SVG 1.1//EN" "http://www.w3.org/Graphics/SVG/1.1/DTD/svg11.dtd">
<svg version="1.1" id="Layer_1" xmlns="http://www.w3.org/2000/svg" xmlns:xlink="http://www.w3.org/1999/xlink" x="0px" y="0px"
	 width="64px" height="64px" viewBox="0 0 64 64" enable-background="new 0 0 64 64" xml:space="preserve">
<path fill="none" stroke="#6B6B6B" stroke-width="3" stroke-miterlimit="10" d="M54.334,25c0,9.466-5.891,17.557-14.204,20.809
	c-2.521,0.984-5.262,17.025-8.13,17.025c-2.43,0-4.77-15.889-6.96-16.605C16.112,43.305,9.665,34.904,9.666,25
	C9.666,12.665,19.665,2.666,32,2.666C44.334,2.666,54.334,12.665,54.334,25z"/>
<circle fill="#6B6B6B" cx="32" cy="25" r="15.667"/>
<g>
	<path fill="#FFFFFF" d="M27.784,30.183v-2.635h-4.896v-1.683l4.182-6.731h3.162v6.476h1.326v1.938h-1.326v2.635H27.784z
		 M27.784,25.61v-2.448c0-0.663,0.034-1.343,0.085-2.057h-0.067c-0.357,0.714-0.646,1.36-1.021,2.057l-1.479,2.414v0.034H27.784z"/>
	<path fill="#FFFFFF" d="M39.701,20.97c-0.289-0.017-0.596,0-1.004,0.034c-2.295,0.187-3.314,1.36-3.604,2.652h0.052
		c0.545-0.562,1.309-0.884,2.346-0.884c1.854,0,3.418,1.309,3.418,3.604c0,2.193-1.684,3.995-4.08,3.995
		c-2.939,0-4.386-2.193-4.386-4.828c0-2.074,0.765-3.808,1.955-4.913c1.104-1.003,2.533-1.547,4.268-1.632
		c0.475-0.034,0.781-0.034,1.037-0.017V20.97z M38.289,26.512c0-1.02-0.543-1.904-1.648-1.904c-0.697,0-1.274,0.425-1.529,0.986
		c-0.067,0.136-0.102,0.34-0.102,0.646c0.051,1.173,0.611,2.227,1.783,2.227C37.711,28.466,38.289,27.633,38.289,26.512z"/>
</g>
</svg>
