<?xml version="1.0" encoding="utf-8"?>
<!-- Generator: Adobe Illustrator 16.0.0, SVG Export Plug-In . SVG Version: 6.00 Build 0)  -->
<!DOCTYPE svg PUBLIC "-//W3C//DTD SVG 1.1//EN" "http://www.w3.org/Graphics/SVG/1.1/DTD/svg11.dtd">
<svg version="1.1" id="Layer_1" xmlns="http://www.w3.org/2000/svg" xmlns:xlink="http://www.w3.org/1999/xlink" x="0px" y="0px"
	 width="32px" height="32px" viewBox="0 0 32 32" enable-background="new 0 0 32 32" xml:space="preserve">
<circle display="none" fill="#0B0B0B" cx="16" cy="16" r="11.756"/>
<linearGradient id="SVGID_1_" gradientUnits="userSpaceOnUse" x1="-196.6523" y1="685.5869" x2="-176.1469" y2="706.0923" gradientTransform="matrix(1 0 0 1 202.3999 -679.8398)">
	<stop  offset="0" style="stop-color:#CDCCCC"/>
	<stop  offset="1" style="stop-color:#333333"/>
</linearGradient>
<path display="none" fill="url(#SVGID_1_)" d="M16,1.5C7.992,1.5,1.5,7.992,1.5,16S7.992,30.5,16,30.5S30.5,24.008,30.5,16
	S24.008,1.5,16,1.5z M16,27.756C9.507,27.756,4.244,22.492,4.244,16C4.244,9.507,9.507,4.244,16,4.244
	c6.492,0,11.756,5.263,11.756,11.756C27.756,22.492,22.492,27.756,16,27.756z"/>
<linearGradient id="SVGID_2_" gradientUnits="userSpaceOnUse" x1="-196.3916" y1="685.8486" x2="-176.4097" y2="705.8307" gradientTransform="matrix(1 0 0 1 202.3999 -679.8398)">
	<stop  offset="0" style="stop-color:#989898"/>
	<stop  offset="1" style="stop-color:#333333"/>
</linearGradient>
<path display="none" fill="url(#SVGID_2_)" d="M16,1.871C8.197,1.871,1.871,8.197,1.871,16S8.197,30.129,16,30.129
	c7.803,0,14.129-6.326,14.129-14.129S23.803,1.871,16,1.871z M16,27.756C9.507,27.756,4.244,22.492,4.244,16
	C4.244,9.507,9.507,4.244,16,4.244c6.492,0,11.756,5.263,11.756,11.756C27.756,22.492,22.492,27.756,16,27.756z"/>
<linearGradient id="SVGID_3_" gradientUnits="userSpaceOnUse" x1="-177.8774" y1="704.3623" x2="-194.9212" y2="687.3185" gradientTransform="matrix(1 0 0 1 202.3999 -679.8398)">
	<stop  offset="0" style="stop-color:#676767"/>
	<stop  offset="0.1299" style="stop-color:#5B5B5B"/>
	<stop  offset="0.3733" style="stop-color:#494949"/>
	<stop  offset="0.6058" style="stop-color:#3D3D3D"/>
	<stop  offset="0.8203" style="stop-color:#353535"/>
	<stop  offset="1" style="stop-color:#333333"/>
</linearGradient>
<path display="none" fill="url(#SVGID_3_)" d="M16,3.948C9.344,3.948,3.948,9.344,3.948,16S9.344,28.052,16,28.052
	c6.656,0,12.053-5.396,12.053-12.052S22.656,3.948,16,3.948z M16,27.756C9.507,27.756,4.244,22.492,4.244,16
	C4.244,9.507,9.507,4.244,16,4.244c6.492,0,11.756,5.263,11.756,11.756C27.756,22.492,22.492,27.756,16,27.756z"/>
<g id="hsimage">
	<circle fill="#333333" cx="16.735" cy="16.45" r="11.041"/>
	
		<linearGradient id="SVGID_4_" gradientUnits="userSpaceOnUse" x1="351.9326" y1="1480.8799" x2="367.5443" y2="1496.4915" gradientTransform="matrix(1 0 0 1 -343.5996 -1472.8398)">
		<stop  offset="0" style="stop-color:#FFFFFF"/>
		<stop  offset="1" style="stop-color:#CDCCCC"/>
	</linearGradient>
	<circle fill="url(#SVGID_4_)" cx="16.139" cy="15.846" r="11.04"/>
	<g id="Layer_16" display="none">
		<circle display="inline" fill="#79C143" cx="16.139" cy="15.847" r="6.565"/>
	</g>
	<circle fill="#CB2027" cx="16.139" cy="15.847" r="6.565"/>
	<g id="Layer_19">
		<g opacity="0.5">
			<path fill="#FFFFFF" d="M22.322,13.643c-0.472-1.484-1.425-2.677-2.827-3.538c-1.563-0.957-3.413-1.002-5.104-0.589
				c-0.589,2.037,0.192,4.068,2.005,5.184C18.321,15.875,20.784,15.316,22.322,13.643z"/>
		</g>
	</g>
</g>
<g id="Layer_17" display="none">
	<g display="inline" opacity="0.5">
		<path fill="#FFFFFF" d="M20.691,4.873c-2.455-1.028-5.283-1.252-8.063-0.449C9.531,5.321,7.114,7.351,5.604,9.9
			c1.883,2.953,5.552,4.417,9.148,3.376C18.559,12.175,20.973,8.608,20.691,4.873z"/>
	</g>
</g>
</svg>
