<?xml version="1.0" encoding="utf-8"?>
<!-- Generator: Adobe Illustrator 16.0.0, SVG Export Plug-In . SVG Version: 6.00 Build 0)  -->
<!DOCTYPE svg PUBLIC "-//W3C//DTD SVG 1.1//EN" "http://www.w3.org/Graphics/SVG/1.1/DTD/svg11.dtd">
<svg version="1.1" id="Layer_1" xmlns="http://www.w3.org/2000/svg" xmlns:xlink="http://www.w3.org/1999/xlink" x="0px" y="0px"
	 width="64px" height="64px" viewBox="0 0 64 64" enable-background="new 0 0 64 64" xml:space="preserve">
<path fill="#FF6D00" d="M62,39.5C62,51.926,51.926,62,39.5,62h-15C12.073,62,2,51.926,2,39.5v-15C2,12.073,12.073,2,24.5,2h15
	C51.926,2,62,12.073,62,24.5V39.5z"/>
<path fill="none" stroke="#FFFFFF" stroke-width="4" stroke-miterlimit="10" d="M62,39.5C62,51.926,51.926,62,39.5,62h-15
	C12.073,62,2,51.926,2,39.5v-15C2,12.073,12.073,2,24.5,2h15C51.926,2,62,12.073,62,24.5V39.5z"/>
<path fill="none" stroke="#FFFFFF" stroke-width="4" stroke-miterlimit="10" d="M53.125,37.625"/>
<rect x="22.25" y="27.25" fill="none" stroke="#FFFFFF" stroke-width="2" stroke-miterlimit="10" width="19.375" height="18.25"/>
<polyline fill="none" stroke="#FFFFFF" stroke-width="2" stroke-miterlimit="10" points="16.5,30.25 32,13.25 47.75,30.25 "/>
</svg>
