<?xml version="1.0" encoding="utf-8"?>
<!-- Generator: Adobe Illustrator 16.0.0, SVG Export Plug-In . SVG Version: 6.00 Build 0)  -->
<!DOCTYPE svg PUBLIC "-//W3C//DTD SVG 1.1//EN" "http://www.w3.org/Graphics/SVG/1.1/DTD/svg11.dtd">
<svg version="1.1" id="Layer_1" xmlns="http://www.w3.org/2000/svg" xmlns:xlink="http://www.w3.org/1999/xlink" x="0px" y="0px"
	 width="64px" height="64px" viewBox="0 0 64 64" enable-background="new 0 0 64 64" xml:space="preserve">
<path fill="#FF5500" d="M62,39.5C62,51.926,51.926,62,39.5,62h-15C12.073,62,2,51.926,2,39.5v-15C2,12.073,12.073,2,24.5,2h15
	C51.926,2,62,12.073,62,24.5V39.5z"/>
<path fill="none" stroke="#FFFFFF" stroke-width="4" stroke-miterlimit="10" d="M62,39.5C62,51.926,51.926,62,39.5,62h-15
	C12.073,62,2,51.926,2,39.5v-15C2,12.073,12.073,2,24.5,2h15C51.926,2,62,12.073,62,24.5V39.5z"/>
<g>
	<line fill="none" stroke="#FFFFFF" stroke-width="2" stroke-miterlimit="10" x1="15.042" y1="50" x2="32.042" y2="50"/>
	<line fill="none" stroke="#FFFFFF" stroke-width="2" stroke-miterlimit="10" x1="14.956" y1="13.497" x2="49.121" y2="13.497"/>
	<line fill="none" stroke="#FFFFFF" stroke-width="2" stroke-miterlimit="10" x1="14.874" y1="19.664" x2="49.039" y2="19.664"/>
	<line fill="none" stroke="#FFFFFF" stroke-width="2" stroke-miterlimit="10" x1="14.957" y1="25.831" x2="49.125" y2="25.831"/>
	<line fill="none" stroke="#FFFFFF" stroke-width="2" stroke-miterlimit="10" x1="14.958" y1="31.997" x2="49.125" y2="31.997"/>
	<line fill="none" stroke="#FFFFFF" stroke-width="2" stroke-miterlimit="10" x1="14.958" y1="44.332" x2="49.125" y2="44.332"/>
	<line fill="none" stroke="#FFFFFF" stroke-width="2" stroke-miterlimit="10" x1="14.956" y1="38.164" x2="49.121" y2="38.164"/>
</g>
</svg>
