<?xml version="1.0" encoding="utf-8"?>
<!-- Generator: Adobe Illustrator 16.0.0, SVG Export Plug-In . SVG Version: 6.00 Build 0)  -->
<!DOCTYPE svg PUBLIC "-//W3C//DTD SVG 1.1//EN" "http://www.w3.org/Graphics/SVG/1.1/DTD/svg11.dtd">
<svg version="1.1" id="Layer_1" xmlns="http://www.w3.org/2000/svg" xmlns:xlink="http://www.w3.org/1999/xlink" x="0px" y="0px"
	 width="48px" height="48px" viewBox="0 0 48 48" enable-background="new 0 0 48 48" xml:space="preserve">
<path fill="#6B6B6B" d="M46,29.5C46,38.612,38.612,46,29.5,46h-11C9.387,46,2,38.612,2,29.5v-11C2,9.387,9.387,2,18.5,2h11
	C38.612,2,46,9.387,46,18.5V29.5z"/>
<path fill="none" stroke="#FFFFFF" stroke-width="2.9333" stroke-miterlimit="10" d="M46,29.5C46,38.612,38.612,46,29.5,46h-11
	C9.387,46,2,38.612,2,29.5v-11C2,9.387,9.387,2,18.5,2h11C38.612,2,46,9.387,46,18.5V29.5z"/>
<polyline fill="none" stroke="#FFFFFF" stroke-width="1.4667" stroke-miterlimit="10" points="10.067,25.191 15.475,41.875 
	22.167,30.142 10.8,25.191 12.725,21.617 8.967,21.617 14.467,15.383 17.492,17.858 21.158,8.417 17.125,5.025 12.542,9.517 
	8.967,6.492 "/>
<polyline fill="none" stroke="#FFFFFF" stroke-width="1.4667" stroke-miterlimit="10" points="40.5,39.491 37.842,28.491 
	32.25,24.55 35.642,18.958 43.983,17.492 "/>
<polyline fill="none" stroke="#FFFFFF" stroke-width="1.4667" stroke-miterlimit="10" points="43.25,14.742 39.4,13.55 39.4,15.888 
	38.116,15.017 34.175,17.492 32.25,14.283 35.275,11.625 41.05,9.975 "/>
<polyline fill="none" stroke="#FFFFFF" stroke-width="1.4667" stroke-miterlimit="10" points="36.833,5.667 35.642,9.058 
	39.309,7.362 "/>
<polyline fill="none" stroke="#FFFFFF" stroke-width="1.4667" stroke-miterlimit="10" points="8.967,21.617 8.417,15.567 
	5.117,12.908 "/>
</svg>
