<?xml version="1.0" encoding="utf-8"?>
<!-- Generator: Adobe Illustrator 16.0.0, SVG Export Plug-In . SVG Version: 6.00 Build 0)  -->
<!DOCTYPE svg PUBLIC "-//W3C//DTD SVG 1.1//EN" "http://www.w3.org/Graphics/SVG/1.1/DTD/svg11.dtd">
<svg version="1.1" id="Layer_1" xmlns="http://www.w3.org/2000/svg" xmlns:xlink="http://www.w3.org/1999/xlink" x="0px" y="0px"
	 width="64px" height="64px" viewBox="0 0 64 64" enable-background="new 0 0 64 64" xml:space="preserve">
<path fill="none" stroke="#FF6D00" stroke-width="3" stroke-miterlimit="10" d="M54.334,25c0,9.466-5.89,17.557-14.204,20.808
	c-2.52,0.985-5.262,17.026-8.13,17.026c-2.43,0-4.77-15.889-6.96-16.606C16.112,43.304,9.665,34.904,9.666,25
	C9.666,12.665,19.665,2.666,32,2.666C44.334,2.666,54.334,12.665,54.334,25z"/>
<circle fill="#FF6D00" cx="32" cy="25" r="15.667"/>
<g>
	<path fill="#FFFFFF" d="M29.021,29.573l-0.034-0.884c-0.102-1.734,0.476-3.502,2.005-5.338c1.088-1.292,1.972-2.379,1.972-3.536
		c0-1.19-0.782-1.972-2.482-2.04c-1.122,0-2.481,0.408-3.366,1.02l-1.156-3.706c1.224-0.714,3.264-1.394,5.677-1.394
		c4.488,0,6.527,2.482,6.527,5.303c0,2.584-1.598,4.284-2.89,5.711c-1.258,1.394-1.768,2.72-1.733,4.25v0.612H29.021z
		 M28.137,34.264c0-1.801,1.258-3.093,3.026-3.093c1.835,0,3.025,1.292,3.059,3.093c0,1.768-1.224,3.094-3.059,3.094
		C29.36,37.357,28.137,36.031,28.137,34.264z"/>
</g>
</svg>
