<?xml version="1.0" encoding="utf-8"?>
<!-- Generator: Adobe Illustrator 16.0.0, SVG Export Plug-In . SVG Version: 6.00 Build 0)  -->
<!DOCTYPE svg PUBLIC "-//W3C//DTD SVG 1.1//EN" "http://www.w3.org/Graphics/SVG/1.1/DTD/svg11.dtd">
<svg version="1.1" id="Layer_1" xmlns="http://www.w3.org/2000/svg" xmlns:xlink="http://www.w3.org/1999/xlink" x="0px" y="0px"
	 width="100px" height="100px" viewBox="50 50 100 100" enable-background="new 50 50 100 100" xml:space="preserve">
<g id="Layer_1_1_">
	<g>
		<g>
			<path fill="none" stroke="#000000" stroke-width="0.4987" stroke-miterlimit="10" d="M100.001,50C127.637,50,150,72.363,150,100
				s-22.363,50-49.999,50C72.363,150,50,127.636,50,100C50,72.364,72.363,50,100.001,50z"/>
			<path fill="none" stroke="#000000" stroke-width="0.4987" stroke-miterlimit="10" d="M58.325,100
				c0,23.023,18.652,41.674,41.674,41.674s41.676-18.653,41.676-41.674c0-23.023-18.651-41.674-41.676-41.674
				C76.976,58.326,58.325,76.977,58.325,100z"/>
			<path fill="none" stroke="#000000" stroke-width="0.4987" stroke-miterlimit="10" d="M100.001,66.675
				c18.433,0,33.325,14.893,33.325,33.326c0,18.432-14.893,33.325-33.325,33.325s-33.326-14.893-33.326-33.326
				C66.675,81.565,81.567,66.675,100.001,66.675z"/>
			<path fill="none" stroke="#000000" stroke-width="0.4987" stroke-miterlimit="10" d="M75,100c0,13.818,11.181,25,24.999,25
				c13.819,0,25.002-11.182,25.002-25c0-13.818-11.183-25.001-25.001-25.001C86.181,74.999,75,86.182,75,100z"/>
			<path fill="none" stroke="#000000" stroke-width="0.4987" stroke-miterlimit="10" d="M100.001,83.325
				c9.205,0,16.674,7.471,16.674,16.675c0,9.204-7.469,16.675-16.674,16.675c-9.205,0-16.676-7.472-16.676-16.675
				C83.325,90.796,90.796,83.325,100.001,83.325z"/>
			<path fill="none" stroke="#000000" stroke-width="0.4987" stroke-miterlimit="10" d="M91.675,100
				c0,4.615,3.711,8.326,8.326,8.326s8.323-3.711,8.323-8.326c0-4.614-3.709-8.326-8.323-8.326
				C95.386,91.674,91.675,95.386,91.675,100z"/>
		</g>
		<g>
			
				<line fill="none" stroke="#000000" stroke-width="0.4987" stroke-miterlimit="10" x1="100.001" y1="100" x2="52.442" y2="84.545"/>
			
				<line fill="none" stroke="#000000" stroke-width="0.4987" stroke-miterlimit="10" x1="100.001" y1="100" x2="70.606" y2="140.454"/>
			
				<line fill="none" stroke="#000000" stroke-width="0.4987" stroke-miterlimit="10" x1="129.395" y1="140.454" x2="100.001" y2="100"/>
			<polyline fill="none" stroke="#000000" stroke-width="0.4987" stroke-miterlimit="10" points="147.559,84.545 100.001,100 
				100.001,99.272 100.001,50 100.001,100 			"/>
		</g>
	</g>
</g>
</svg>
