<?xml version="1.0" encoding="utf-8"?>
<!-- Generator: Adobe Illustrator 16.0.0, SVG Export Plug-In . SVG Version: 6.00 Build 0)  -->
<!DOCTYPE svg PUBLIC "-//W3C//DTD SVG 1.1//EN" "http://www.w3.org/Graphics/SVG/1.1/DTD/svg11.dtd">
<svg version="1.1" id="Layer_1" xmlns="http://www.w3.org/2000/svg" xmlns:xlink="http://www.w3.org/1999/xlink" x="0px" y="0px"
	 width="64px" height="64px" viewBox="0 0 64 64" enable-background="new 0 0 64 64" xml:space="preserve">
<path fill="none" stroke="#FF6D00" stroke-width="3" stroke-miterlimit="10" d="M54.334,25c0,9.466-5.89,17.557-14.204,20.808
	c-2.52,0.985-5.262,17.026-8.13,17.026c-2.43,0-4.77-15.889-6.96-16.606C16.112,43.304,9.665,34.904,9.666,25
	C9.666,12.665,19.665,2.666,32,2.666C44.334,2.666,54.334,12.665,54.334,25z"/>
<circle fill="#FF6D00" cx="32" cy="25" r="15.667"/>
<g>
	<path fill="#FFFFFF" d="M22.275,21.549h-0.034l-2.107,1.002l-0.425-1.938l2.923-1.36h2.143v11.049h-2.499V21.549z"/>
	<path fill="#FFFFFF" d="M36.57,24.728c0,3.417-1.377,5.763-4.198,5.763c-2.856,0-4.114-2.567-4.131-5.694
		c0-3.196,1.36-5.729,4.216-5.729C35.414,19.067,36.57,21.702,36.57,24.728z M30.842,24.796c-0.017,2.533,0.595,3.739,1.598,3.739
		c1.003,0,1.546-1.258,1.546-3.773c0-2.448-0.525-3.74-1.563-3.74C31.471,21.022,30.826,22.229,30.842,24.796z"/>
	<path fill="#FFFFFF" d="M41.145,21.549h-0.035l-2.107,1.002l-0.424-1.938l2.922-1.36h2.143v11.049h-2.498V21.549z"/>
</g>
</svg>
