<?xml version="1.0" encoding="utf-8"?>
<!-- Generator: Adobe Illustrator 16.0.0, SVG Export Plug-In . SVG Version: 6.00 Build 0)  -->
<!DOCTYPE svg PUBLIC "-//W3C//DTD SVG 1.1//EN" "http://www.w3.org/Graphics/SVG/1.1/DTD/svg11.dtd">
<svg version="1.1" id="Layer_1" xmlns="http://www.w3.org/2000/svg" xmlns:xlink="http://www.w3.org/1999/xlink" x="0px" y="0px"
	 width="164px" height="108px" viewBox="0 0 164 108" enable-background="new 0 0 164 108" xml:space="preserve">
<path fill="#020202" d="M104,33.5c0,9.112-7.388,16.5-16.5,16.5h-11C67.387,50,60,42.612,60,33.5v-11C60,13.387,67.387,6,76.5,6h11
	c9.112,0,16.5,7.387,16.5,16.5V33.5z"/>
<path fill="#020202" d="M104,85.167c0,9.112-7.388,16.5-16.5,16.5h-11c-9.113,0-16.5-7.388-16.5-16.5v-11
	c0-9.112,7.387-16.5,16.5-16.5h11c9.112,0,16.5,7.388,16.5,16.5V85.167z"/>
<path fill="#020202" d="M155.223,85.167c0,9.112-7.388,16.5-16.5,16.5h-11c-9.113,0-16.5-7.388-16.5-16.5v-11
	c0-9.112,7.387-16.5,16.5-16.5h11c9.112,0,16.5,7.388,16.5,16.5V85.167z"/>
<path fill="#020202" d="M52.778,85.167c0,9.112-7.388,16.5-16.5,16.5h-11c-9.113,0-16.5-7.388-16.5-16.5v-11
	c0-9.112,7.387-16.5,16.5-16.5h11c9.112,0,16.5,7.388,16.5,16.5V85.167z"/>
</svg>
