<?xml version="1.0" encoding="utf-8"?>
<!-- Generator: Adobe Illustrator 16.0.0, SVG Export Plug-In . SVG Version: 6.00 Build 0)  -->
<!DOCTYPE svg PUBLIC "-//W3C//DTD SVG 1.1//EN" "http://www.w3.org/Graphics/SVG/1.1/DTD/svg11.dtd">
<svg version="1.1" id="Layer_1" xmlns="http://www.w3.org/2000/svg" xmlns:xlink="http://www.w3.org/1999/xlink" x="0px" y="0px"
	 width="32px" height="32px" viewBox="0 0 32 32" enable-background="new 0 0 32 32" xml:space="preserve">
<circle display="none" fill="#0B0B0B" cx="16" cy="16" r="11.756"/>
<linearGradient id="SVGID_1_" gradientUnits="userSpaceOnUse" x1="-188.2524" y1="131.2539" x2="-167.7465" y2="110.748" gradientTransform="matrix(1 0 0 -1 194 137)">
	<stop  offset="0" style="stop-color:#CDCCCC"/>
	<stop  offset="1" style="stop-color:#333333"/>
</linearGradient>
<path display="none" fill="url(#SVGID_1_)" d="M16,1.5C7.992,1.5,1.5,7.992,1.5,16S7.992,30.5,16,30.5S30.5,24.008,30.5,16
	S24.008,1.5,16,1.5z M16,27.756C9.507,27.756,4.244,22.492,4.244,16C4.244,9.507,9.507,4.244,16,4.244
	c6.492,0,11.756,5.263,11.756,11.756C27.756,22.492,22.492,27.756,16,27.756z"/>
<linearGradient id="SVGID_2_" gradientUnits="userSpaceOnUse" x1="-187.9902" y1="130.9912" x2="-168.0092" y2="111.0101" gradientTransform="matrix(1 0 0 -1 194 137)">
	<stop  offset="0" style="stop-color:#989898"/>
	<stop  offset="1" style="stop-color:#333333"/>
</linearGradient>
<path display="none" fill="url(#SVGID_2_)" d="M16,1.871C8.197,1.871,1.871,8.197,1.871,16S8.197,30.129,16,30.129
	c7.803,0,14.129-6.326,14.129-14.129S23.803,1.871,16,1.871z M16,27.756C9.507,27.756,4.244,22.492,4.244,16
	C4.244,9.507,9.507,4.244,16,4.244c6.492,0,11.756,5.263,11.756,11.756C27.756,22.492,22.492,27.756,16,27.756z"/>
<linearGradient id="SVGID_3_" gradientUnits="userSpaceOnUse" x1="-169.4775" y1="112.4785" x2="-186.5213" y2="129.5223" gradientTransform="matrix(1 0 0 -1 194 137)">
	<stop  offset="0" style="stop-color:#676767"/>
	<stop  offset="0.1299" style="stop-color:#5B5B5B"/>
	<stop  offset="0.3733" style="stop-color:#494949"/>
	<stop  offset="0.6058" style="stop-color:#3D3D3D"/>
	<stop  offset="0.8203" style="stop-color:#353535"/>
	<stop  offset="1" style="stop-color:#333333"/>
</linearGradient>
<path display="none" fill="url(#SVGID_3_)" d="M16,3.948C9.344,3.948,3.948,9.344,3.948,16S9.344,28.052,16,28.052
	S28.052,22.656,28.052,16S22.656,3.948,16,3.948z M16,27.756C9.507,27.756,4.244,22.492,4.244,16C4.244,9.507,9.507,4.244,16,4.244
	c6.492,0,11.756,5.263,11.756,11.756C27.756,22.492,22.492,27.756,16,27.756z"/>
<g id="hsimage">
	<circle fill="#333333" cx="16.59" cy="16.303" r="5.643"/>
	
		<linearGradient id="SVGID_4_" gradientUnits="userSpaceOnUse" x1="364.2949" y1="-668.0034" x2="372.2737" y2="-675.9822" gradientTransform="matrix(1 0 0 -1 -352 -656)">
		<stop  offset="0" style="stop-color:#FFFFFF"/>
		<stop  offset="1" style="stop-color:#CDCCCC"/>
	</linearGradient>
	<circle fill="url(#SVGID_4_)" cx="16.285" cy="15.994" r="5.642"/>
	<g id="Layer_16" display="none">
		<circle display="inline" fill="#79C143" cx="16.285" cy="15.994" r="3.355"/>
	</g>
	<circle fill="#CB2027" cx="16.285" cy="15.994" r="3.355"/>
	<g id="Layer_19">
		<g opacity="0.5">
			<path fill="#FFFFFF" d="M19.445,14.868C19.204,14.11,18.717,13.5,18,13.06c-0.799-0.489-1.744-0.512-2.608-0.301
				c-0.301,1.041,0.098,2.079,1.025,2.649C17.4,16.009,18.659,15.723,19.445,14.868z"/>
		</g>
	</g>
</g>
<g id="Layer_17" display="none">
	<g display="inline" opacity="0.5">
		<path fill="#FFFFFF" d="M20.691,4.873c-2.455-1.028-5.283-1.252-8.063-0.449C9.531,5.321,7.114,7.351,5.604,9.9
			c1.883,2.953,5.552,4.417,9.148,3.376C18.559,12.175,20.973,8.608,20.691,4.873z"/>
	</g>
</g>
</svg>
