<?xml version="1.0" encoding="utf-8"?>
<!-- Generator: Adobe Illustrator 16.0.0, SVG Export Plug-In . SVG Version: 6.00 Build 0)  -->
<!DOCTYPE svg PUBLIC "-//W3C//DTD SVG 1.1//EN" "http://www.w3.org/Graphics/SVG/1.1/DTD/svg11.dtd">
<svg version="1.1" id="Layer_1" xmlns="http://www.w3.org/2000/svg" xmlns:xlink="http://www.w3.org/1999/xlink" x="0px" y="0px"
	 width="64px" height="64px" viewBox="0 0 64 64" enable-background="new 0 0 64 64" xml:space="preserve">
<g>
	<polygon fill="#F26E21" points="24.971,25.19 26.502,23.961 27.917,23.025 29.992,22.331 31.538,22.288 33.018,22.585 
		34.829,23.377 36.778,24.715 38.32,26.12 32.054,32.332 	"/>
	<path fill="none" stroke="#231F20" stroke-width="1.1504" stroke-miterlimit="10" d="M18.321,31.995
		c-4.272,4.235-4.61,10.821-0.756,14.706l0,0c3.854,3.888,10.441,3.604,14.714-0.632l7.342-7.283
		c4.271-4.235,2.555-8.781-1.3-12.667l0,0c-3.854-3.886-8.386-5.642-12.657-1.407L18.321,31.995z"/>
	
		<line fill="none" stroke="#231F20" stroke-width="1.1504" stroke-miterlimit="10" x1="25.076" y1="25.296" x2="39.034" y2="39.369"/>
	<polyline fill="none" stroke="#231F20" stroke-width="1.1504" stroke-miterlimit="10" points="32.054,32.332 38.32,26.12 
		32.054,32.332 	"/>
	<path fill="none" stroke="#231F20" stroke-width="1.1504" stroke-miterlimit="10" d="M17.461,46.598c0,0-3.078,3.414-5.547,5.188
		S4.023,51.311,1,54.173"/>
</g>
<g>
	<g>
		
			<line fill="none" stroke="#231F20" stroke-width="4.7004" stroke-linecap="round" stroke-linejoin="round" x1="41.875" y1="21.125" x2="50.654" y2="12.347"/>
		<g>
			<polygon fill="#231F20" points="54.757,19.844 59.002,3.999 43.156,8.243 			"/>
		</g>
	</g>
</g>
<g>
	<g>
		
			<line fill="none" stroke="#231F20" stroke-width="4.7004" stroke-linecap="round" stroke-linejoin="round" x1="42.873" y1="42.874" x2="51.653" y2="51.654"/>
		<g>
			<polygon fill="#231F20" points="44.155,55.757 60.001,60.002 55.756,44.156 			"/>
		</g>
	</g>
</g>
<g>
	<g>
		
			<line fill="none" stroke="#231F20" stroke-width="4.7004" stroke-linecap="round" stroke-linejoin="round" x1="21.128" y1="21.126" x2="12.349" y2="12.348"/>
		<g>
			<polygon fill="#231F20" points="19.847,8.244 4.001,4 8.246,19.845 			"/>
		</g>
	</g>
</g>
</svg>
