<?xml version="1.0" encoding="utf-8"?>
<!-- Generator: Adobe Illustrator 16.0.0, SVG Export Plug-In . SVG Version: 6.00 Build 0)  -->
<!DOCTYPE svg PUBLIC "-//W3C//DTD SVG 1.1//EN" "http://www.w3.org/Graphics/SVG/1.1/DTD/svg11.dtd">
<svg version="1.1" id="Layer_1" xmlns="http://www.w3.org/2000/svg" xmlns:xlink="http://www.w3.org/1999/xlink" x="0px" y="0px"
	 width="82px" height="54px" viewBox="41 27 82 54" enable-background="new 41 27 82 54" xml:space="preserve">
<g id="Layer_1_1_">
	<g display="none" opacity="0.5">
		<path display="inline" d="M47,80.25c-2.895,0-5.25-2.355-5.25-5.25V33c0-2.895,2.355-5.25,5.25-5.25h70
			c2.895,0,5.25,2.355,5.25,5.25v42c0,2.895-2.355,5.25-5.25,5.25H47z"/>
		<path display="inline" fill="#FFFFFF" d="M117,28.5c2.481,0,4.5,2.019,4.5,4.5v42c0,2.481-2.019,4.5-4.5,4.5H47
			c-2.481,0-4.5-2.019-4.5-4.5V33c0-2.481,2.019-4.5,4.5-4.5H117 M117,27H47c-3.313,0-6,2.687-6,6v42c0,3.313,2.687,6,6,6h70
			c3.313,0,6-2.687,6-6V33C123,29.687,120.313,27,117,27L117,27z"/>
	</g>
	<path opacity="0.3" fill="#020202" enable-background="new    " d="M96.41,46.531c0,4.34-3.52,7.859-7.859,7.859h-5.238
		c-4.342,0-7.86-3.519-7.86-7.859v-5.239c0-4.341,3.519-7.859,7.86-7.859h5.239c4.34,0,7.858,3.518,7.858,7.859V46.531L96.41,46.531
		z"/>
	<path opacity="0.3" fill="#020202" enable-background="new    " d="M96.41,71.141c0,4.34-3.52,7.859-7.859,7.859h-5.238
		c-4.342,0-7.86-3.52-7.86-7.859v-5.239c0-4.341,3.519-7.858,7.86-7.858h5.239c4.34,0,7.858,3.518,7.858,7.858V71.141L96.41,71.141z
		"/>
	<path opacity="0.3" fill="#020202" enable-background="new    " d="M120.809,71.141c0,4.34-3.52,7.859-7.86,7.859h-5.239
		c-4.341,0-7.859-3.52-7.859-7.859v-5.239c0-4.341,3.519-7.858,7.859-7.858h5.239c4.341,0,7.86,3.518,7.86,7.858V71.141z"/>
	<path opacity="0.3" fill="#020202" enable-background="new    " d="M72.013,71.141c0,4.34-3.52,7.859-7.859,7.859h-5.239
		c-4.34,0-7.859-3.52-7.859-7.859v-5.239c0-4.341,3.519-7.858,7.859-7.858h5.24c4.34,0,7.858,3.518,7.858,7.858V71.141
		L72.013,71.141z"/>
</g>
<g id="Layer_2">
	<path fill="#6B6B6B" d="M84.371,30.734c4.34,0,7.858,3.519,7.858,7.859v5.24c0,4.34-3.519,7.859-7.858,7.859h-5.24
		c-4.34,0-7.859-3.519-7.859-7.859v-5.239c0-4.341,3.519-7.859,7.859-7.859L84.371,30.734L84.371,30.734z"/>
	<path fill="none" stroke="#FFFFFF" stroke-width="1.3971" stroke-miterlimit="10" d="M84.371,30.734
		c4.34,0,7.858,3.519,7.858,7.859v5.24c0,4.34-3.519,7.859-7.858,7.859h-5.24c-4.34,0-7.859-3.519-7.859-7.859v-5.239
		c0-4.341,3.519-7.859,7.859-7.859L84.371,30.734L84.371,30.734z"/>
	<g>
		<g>
			
				<line fill="none" stroke="#FFFFFF" stroke-width="2.0957" stroke-miterlimit="10" x1="81.75" y1="38.206" x2="81.75" y2="47.802"/>
			<g>
				<polygon fill="#FFFFFF" points="78.094,39.276 81.75,32.942 85.408,39.276 				"/>
			</g>
		</g>
	</g>
	<path fill="#6B6B6B" d="M79.131,76.936c-4.34,0-7.859-3.52-7.859-7.859v-5.238c0-4.342,3.519-7.859,7.859-7.859h5.24
		c4.34,0,7.858,3.518,7.858,7.859v5.239c0,4.34-3.519,7.858-7.858,7.858H79.131L79.131,76.936z"/>
	<path fill="none" stroke="#FFFFFF" stroke-width="1.3971" stroke-miterlimit="10" d="M79.131,76.936
		c-4.34,0-7.859-3.52-7.859-7.859v-5.238c0-4.342,3.519-7.859,7.859-7.859h5.24c4.34,0,7.858,3.518,7.858,7.859v5.239
		c0,4.34-3.519,7.858-7.858,7.858H79.131L79.131,76.936z"/>
	<g>
		<g>
			
				<line fill="none" stroke="#FFFFFF" stroke-width="2.0957" stroke-miterlimit="10" x1="81.75" y1="68.511" x2="81.75" y2="58.915"/>
			<g>
				<polygon fill="#FFFFFF" points="85.408,67.44 81.75,73.774 78.094,67.44 				"/>
			</g>
		</g>
	</g>
	<path fill="#6B6B6B" d="M116.918,69.076c0,4.34-3.52,7.859-7.859,7.859h-5.239c-4.341,0-7.859-3.52-7.859-7.859v-5.239
		c0-4.341,3.519-7.859,7.859-7.859h5.239c4.34,0,7.859,3.519,7.859,7.859V69.076z"/>
	<path fill="none" stroke="#FFFFFF" stroke-width="1.3971" stroke-miterlimit="10" d="M116.918,69.076
		c0,4.34-3.52,7.859-7.859,7.859h-5.239c-4.341,0-7.859-3.52-7.859-7.859v-5.239c0-4.341,3.519-7.859,7.859-7.859h5.239
		c4.34,0,7.859,3.519,7.859,7.859V69.076z"/>
	<g>
		<g>
			
				<line fill="none" stroke="#FFFFFF" stroke-width="2.0957" stroke-miterlimit="10" x1="108.493" y1="66.457" x2="98.897" y2="66.457"/>
			<g>
				<polygon fill="#FFFFFF" points="107.423,62.799 113.757,66.457 107.423,70.114 				"/>
			</g>
		</g>
	</g>
	<path fill="#6B6B6B" d="M46.583,63.725c0-4.34,3.52-7.858,7.859-7.858h5.24c4.341,0,7.859,3.519,7.859,7.858v5.24
		c0,4.341-3.519,7.859-7.859,7.859h-5.24c-4.34,0-7.859-3.519-7.859-7.859V63.725z"/>
	<path fill="none" stroke="#FFFFFF" stroke-width="1.3971" stroke-miterlimit="10" d="M46.583,63.725c0-4.34,3.52-7.858,7.859-7.858
		h5.24c4.341,0,7.859,3.519,7.859,7.858v5.24c0,4.341-3.519,7.859-7.859,7.859h-5.24c-4.34,0-7.859-3.519-7.859-7.859V63.725z"/>
	<g>
		<g>
			
				<line fill="none" stroke="#FFFFFF" stroke-width="2.0957" stroke-miterlimit="10" x1="55.008" y1="66.345" x2="64.604" y2="66.345"/>
			<g>
				<polygon fill="#FFFFFF" points="56.078,70.002 49.744,66.345 56.078,62.688 				"/>
			</g>
		</g>
	</g>
</g>
</svg>
