<?xml version="1.0" encoding="utf-8"?>
<!-- Generator: Adobe Illustrator 16.0.0, SVG Export Plug-In . SVG Version: 6.00 Build 0)  -->
<!DOCTYPE svg PUBLIC "-//W3C//DTD SVG 1.1//EN" "http://www.w3.org/Graphics/SVG/1.1/DTD/svg11.dtd">
<svg version="1.1" id="Layer_1" xmlns="http://www.w3.org/2000/svg" xmlns:xlink="http://www.w3.org/1999/xlink" x="0px" y="0px"
	 width="48px" height="48px" viewBox="0 0 48 48" enable-background="new 0 0 48 48" xml:space="preserve">
<path fill="#F36E21" d="M46,29.5C46,38.612,38.612,46,29.5,46h-11C9.387,46,2,38.612,2,29.5v-11C2,9.387,9.387,2,18.5,2h11
	C38.612,2,46,9.387,46,18.5V29.5z"/>
<path fill="none" stroke="#FFFFFF" stroke-width="2.9333" stroke-miterlimit="10" d="M46,29.5C46,38.612,38.612,46,29.5,46h-11
	C9.387,46,2,38.612,2,29.5v-11C2,9.387,9.387,2,18.5,2h11C38.612,2,46,9.387,46,18.5V29.5z"/>
<g>
	<g>
		<line fill="none" stroke="#FFFFFF" stroke-width="4.4" stroke-miterlimit="10" x1="23.766" y1="19.453" x2="23.766" y2="39.599"/>
		<g>
			<polygon fill="#FFFFFF" points="16.087,21.7 23.766,8.401 31.444,21.7 			"/>
		</g>
	</g>
</g>
</svg>
