<?xml version="1.0" encoding="utf-8"?>
<!-- Generator: Adobe Illustrator 16.0.0, SVG Export Plug-In . SVG Version: 6.00 Build 0)  -->
<!DOCTYPE svg PUBLIC "-//W3C//DTD SVG 1.1//EN" "http://www.w3.org/Graphics/SVG/1.1/DTD/svg11.dtd">
<svg version="1.1" id="Layer_1" xmlns="http://www.w3.org/2000/svg" xmlns:xlink="http://www.w3.org/1999/xlink" x="0px" y="0px"
	 width="1332px" height="1332px" viewBox="0 0 1332 1332" enable-background="new 0 0 1332 1332" xml:space="preserve">
<g>
	<g>
		<path fill="#FFFFFF" d="M559.006,959.768c25.927,10.646,57.024,16.043,92.514,16.043c4.968,0,10.08-0.109,15.198-0.326
			c40.104-1.692,68.099-7.757,87.45-14.721c-1.813,5.115-2,10.812-0.442,15.762c1.085,3.449,0.946,6.336-0.471,9.667
			c-2.481,5.85-2.5,12.528-0.048,17.876c0.873,1.899,1.453,4.422-0.189,9.962c-1.59,5.349-0.7,10.073-0.225,12.612l0.01,0.051
			l0.001,0.004c0.501,2.658,1.066,5.222,1.612,7.699c0.955,4.332,1.855,8.424,2.223,12.176c0.528,5.413,0.491,11.372-0.108,17.713
			c-1.024,10.807-6.957,18.488-19.839,25.688c-12.352,6.905-25.652,11.706-39.536,14.268c-8.742,1.615-15.068,6.561-18.806,14.702
			c-0.091,0.146-0.276,0.362-0.422,0.496c-5.128,2.575-10.218,3.828-15.553,3.828c-5.105,0-10.541-1.192-16.157-3.544
			c-0.171-0.071-0.284-0.131-0.352-0.169c-0.024-0.05-0.058-0.124-0.097-0.226c-3.125-8.285-11.225-12.389-17.756-13.462
			c-15.777-2.603-29.632-6.857-42.354-13.012c-12.699-6.143-19.441-12.108-22.544-19.953c-3.852-9.733-3.636-18.636,0.659-27.215
			c3.282-6.559,3.389-14.921,0.268-21.304c-0.577-1.18-1.075-2.198,0.474-5.559c3.001-6.515,2.802-14.806-0.513-21.125
			c-1.521-2.901-1.093-3.762-0.444-5.063c3.192-6.406,3.946-16.054-1.567-23.17C560.298,967.285,559.39,964.419,559.006,959.768
			 M780.422,925.711c-0.474,0.498-0.902,1.006-1.29,1.522C780.041,926.267,780.422,925.711,780.422,925.711L780.422,925.711z
			 M535.856,926.539c3.763,4.093,6.253,8.729,5.678,14.812c-0.467,4.935,0.162,9.973,0.283,14.965
			c0.204,8.437,1.296,16.55,6.737,23.569c0.827,1.066,0.513,3.72-0.212,5.172c-3.507,7.035-2.986,13.691,0.604,20.54
			c0.863,1.647,0.911,4.417,0.129,6.114c-3.116,6.762-3.672,13.256-0.307,20.141c0.819,1.678,0.664,4.506-0.197,6.229
			c-6.785,13.552-6.638,27.5-1.267,41.077c5.63,14.231,17.652,22.571,30.951,29.003c14.907,7.211,30.657,11.787,46.99,14.48
			c1.692,0.278,4.12,1.372,4.616,2.688c1.85,4.903,5.195,8.154,9.79,10.077c7.58,3.173,15.172,4.862,22.721,4.862
			c7.927,0,15.806-1.864,23.561-5.828c3.257-1.665,6.33-5.036,7.849-8.369c1.494-3.278,3.387-4.544,6.459-5.11
			c15.805-2.917,30.738-8.316,44.744-16.146c15.385-8.6,26.715-20.437,28.467-38.925c0.658-6.939,0.781-14.041,0.104-20.967
			c-0.7-7.188-2.704-14.242-4.049-21.372c-0.287-1.527-0.619-3.255-0.196-4.674c2.194-7.405,2.676-14.646-0.656-21.901
			c-0.517-1.124-0.271-2.921,0.248-4.141c2.994-7.04,3.346-14.073,1.037-21.41c-0.554-1.757-0.201-4.236,0.649-5.921
			c3.455-6.831,5.412-13.9,5.107-21.606c-0.233-5.88-0.284-11.698,3.433-16.661c-5.634,5.997-31.578,27.821-113.132,31.267
			c-4.995,0.211-9.813,0.311-14.48,0.311C567.663,958.811,535.856,926.539,535.856,926.539L535.856,926.539z"/>
	</g>
	<path fill="none" stroke="#FFFFFF" stroke-width="17" stroke-miterlimit="10" d="M548.77,1044.852c0,0,49.23,18,113.897,16.148
		c64.667-1.853,106.843-24.451,106.843-24.451"/>
	<path fill="none" stroke="#FFFFFF" stroke-width="17" stroke-miterlimit="10" d="M554.558,1012.031
		c0,0,40.592,15.235,105.259,13.384s106.842-24.45,106.842-24.45"/>
	<path fill="none" stroke="#FFFFFF" stroke-width="17" stroke-miterlimit="10" d="M552.535,980.883
		c0,0,45.466,12.541,110.133,10.688c64.666-1.852,99.883-21.171,99.883-21.171"/>
	<g>
		<path fill="#FFFFFF" d="M780.421,924.044c1.388-1.459,9.079-10.794,15.058-36.509c3.797-16.333,5.455-33.117,7.433-49.772
			c1.969-16.584,5.067-32.87,10.392-48.687c7.926-23.543,21.328-44.144,34.586-64.912c19.739-30.923,39.815-61.714,57.742-93.687
			c16.853-30.056,26.548-62.946,30.507-97.394c3.139-27.299,2.686-54.559-1.538-81.601c-4.303-27.542-13.159-53.826-25.447-78.894
			c-16.899-34.474-39.705-64.469-68.771-89.553c-26.146-22.566-55.396-39.876-87.956-51.764
			c-30.61-11.175-62.002-17.308-94.694-18.316c-16.038,1.584-32.214,2.328-48.082,4.938c-27.519,4.53-53.879,13.254-78.784,25.894
			c-30.638,15.549-57.813,35.756-81.08,61.188c-24.399,26.667-43.492,56.706-56.363,90.385
			c-10.304,26.962-16.317,55.11-18.371,83.975c-1.648,23.178-0.108,46.171,4.043,69.067c4.657,25.688,11.271,50.961,23.791,73.759
			c16.625,30.271,35.122,59.531,53.334,88.903c11.812,19.048,25.889,36.646,35.374,57.192c7.785,16.858,14.349,34.021,16.697,52.531
			c2.388,18.807,4.354,37.667,6.771,56.47c2.294,17.845,8.374,34.104,20.798,47.612c0,0,36.782,30.46,122.282,30.46
			S780.421,924.044,780.421,924.044z"/>
	</g>
</g>
</svg>
