<?xml version="1.0" encoding="utf-8"?>
<!-- Generator: Adobe Illustrator 19.0.0, SVG Export Plug-In . SVG Version: 6.00 Build 0)  -->
<svg version="1.1" id="Layer_1" xmlns="http://www.w3.org/2000/svg" xmlns:xlink="http://www.w3.org/1999/xlink" x="0px" y="0px"
	 viewBox="566 -566 1332 1332" style="enable-background:new 566 -566 1332 1332;" xml:space="preserve">
<style type="text/css">
	.st0{fill:#999999;}
	.st1{fill:none;stroke:#999999;stroke-width:17;stroke-miterlimit:10;}
</style>
<g>
	<g>
		<path class="st0" d="M1125,393.8c25.9,10.6,57,16,92.5,16c5,0,10.1-0.1,15.2-0.3c40.1-1.7,68.1-7.8,87.4-14.7
			c-1.8,5.1-2,10.8-0.4,15.8c1.1,3.4,0.9,6.3-0.5,9.7c-2.5,5.8-2.5,12.5,0,17.9c0.9,1.9,1.5,4.4-0.2,10c-1.6,5.3-0.7,10.1-0.2,12.6
			l0,0.1l0,0c0.5,2.7,1.1,5.2,1.6,7.7c1,4.3,1.9,8.4,2.2,12.2c0.5,5.4,0.5,11.4-0.1,17.7c-1,10.8-7,18.5-19.8,25.7
			c-12.4,6.9-25.7,11.7-39.5,14.3c-8.7,1.6-15.1,6.6-18.8,14.7c-0.1,0.1-0.3,0.4-0.4,0.5c-5.1,2.6-10.2,3.8-15.6,3.8
			c-5.1,0-10.5-1.2-16.2-3.5c-0.2-0.1-0.3-0.1-0.4-0.2c0-0.1-0.1-0.1-0.1-0.2c-3.1-8.3-11.2-12.4-17.8-13.5
			c-15.8-2.6-29.6-6.9-42.4-13c-12.7-6.1-19.4-12.1-22.5-20c-3.9-9.7-3.6-18.6,0.7-27.2c3.3-6.6,3.4-14.9,0.3-21.3
			c-0.6-1.2-1.1-2.2,0.5-5.6c3-6.5,2.8-14.8-0.5-21.1c-1.5-2.9-1.1-3.8-0.4-5.1c3.2-6.4,3.9-16.1-1.6-23.2
			C1126.3,401.3,1125.4,398.4,1125,393.8 M1346.4,359.7c-0.5,0.5-0.9,1-1.3,1.5C1346,360.3,1346.4,359.7,1346.4,359.7L1346.4,359.7z
			 M1101.9,360.5c3.8,4.1,6.3,8.7,5.7,14.8c-0.5,4.9,0.2,10,0.3,15c0.2,8.4,1.3,16.5,6.7,23.6c0.8,1.1,0.5,3.7-0.2,5.2
			c-3.5,7-3,13.7,0.6,20.5c0.9,1.6,0.9,4.4,0.1,6.1c-3.1,6.8-3.7,13.3-0.3,20.1c0.8,1.7,0.7,4.5-0.2,6.2
			c-6.8,13.6-6.6,27.5-1.3,41.1c5.6,14.2,17.7,22.6,31,29c14.9,7.2,30.7,11.8,47,14.5c1.7,0.3,4.1,1.4,4.6,2.7
			c1.8,4.9,5.2,8.2,9.8,10.1c7.6,3.2,15.2,4.9,22.7,4.9c7.9,0,15.8-1.9,23.6-5.8c3.3-1.7,6.3-5,7.8-8.4c1.5-3.3,3.4-4.5,6.5-5.1
			c15.8-2.9,30.7-8.3,44.7-16.1c15.4-8.6,26.7-20.4,28.5-38.9c0.7-6.9,0.8-14,0.1-21c-0.7-7.2-2.7-14.2-4-21.4
			c-0.3-1.5-0.6-3.3-0.2-4.7c2.2-7.4,2.7-14.6-0.7-21.9c-0.5-1.1-0.3-2.9,0.2-4.1c3-7,3.3-14.1,1-21.4c-0.6-1.8-0.2-4.2,0.6-5.9
			c3.5-6.8,5.4-13.9,5.1-21.6c-0.2-5.9-0.3-11.7,3.4-16.7c-5.6,6-31.6,27.8-113.1,31.3c-5,0.2-9.8,0.3-14.5,0.3
			C1133.7,392.8,1101.9,360.5,1101.9,360.5L1101.9,360.5z"/>
	</g>
	<path class="st1" d="M1114.8,478.9c0,0,49.2,18,113.9,16.1c64.7-1.9,106.8-24.5,106.8-24.5"/>
	<path class="st1" d="M1120.6,446c0,0,40.6,15.2,105.3,13.4s106.8-24.5,106.8-24.5"/>
	<path class="st1" d="M1118.5,414.9c0,0,45.5,12.5,110.1,10.7c64.7-1.9,99.9-21.2,99.9-21.2"/>
	<g>
		<path class="st0" d="M1346.4,358c1.4-1.5,9.1-10.8,15.1-36.5c3.8-16.3,5.5-33.1,7.4-49.8c2-16.6,5.1-32.9,10.4-48.7
			c7.9-23.5,21.3-44.1,34.6-64.9c19.7-30.9,39.8-61.7,57.7-93.7c16.9-30.1,26.5-62.9,30.5-97.4c3.1-27.3,2.7-54.6-1.5-81.6
			c-4.3-27.5-13.2-53.8-25.4-78.9c-16.9-34.5-39.7-64.5-68.8-89.6c-26.1-22.6-55.4-39.9-88-51.8c-30.6-11.2-62-17.3-94.7-18.3
			c-16,1.6-32.2,2.3-48.1,4.9c-27.5,4.5-53.9,13.3-78.8,25.9c-30.6,15.5-57.8,35.8-81.1,61.2c-24.4,26.7-43.5,56.7-56.4,90.4
			c-10.3,27-16.3,55.1-18.4,84c-1.6,23.2-0.1,46.2,4,69.1c4.7,25.7,11.3,51,23.8,73.8c16.6,30.3,35.1,59.5,53.3,88.9
			c11.8,19,25.9,36.6,35.4,57.2c7.8,16.9,14.3,34,16.7,52.5c2.4,18.8,4.4,37.7,6.8,56.5c2.3,17.8,8.4,34.1,20.8,47.6
			c0,0,36.8,30.5,122.3,30.5S1346.4,358,1346.4,358z"/>
	</g>
</g>
</svg>
