<?xml version="1.0" encoding="utf-8"?>
<!-- Generator: Adobe Illustrator 19.0.0, SVG Export Plug-In . SVG Version: 6.00 Build 0)  -->
<svg version="1.1" id="Germany" xmlns="http://www.w3.org/2000/svg" xmlns:xlink="http://www.w3.org/1999/xlink" x="0px" y="0px"
	 viewBox="-128 130 42 42" style="enable-background:new -128 130 42 42;" xml:space="preserve">
<style type="text/css">
	.st0{fill:#723025;}
	.st1{fill:#FFFFFF;}
</style>
<path class="st0" d="M-87,167.7c0,1.8-1.5,3.3-3.3,3.3h-33.3c-1.8,0-3.3-1.5-3.3-3.3v-33.3c0-1.8,1.5-3.3,3.3-3.3h33.3
	c1.8,0,3.3,1.5,3.3,3.3V167.7L-87,167.7z"/>
<g>
	<path class="st1" d="M-115.6,140.5l4.8,8.5h0.7v-8.5h6.4v8.5h0.7l4.8-8.5h7.3l-7.4,9.2c2.4,0.4,4,2.8,5,5.4
		c0.9,2.4,1.6,4.7,2.5,6.7h-6.6c-0.6-1-1.1-2.7-1.8-4.9c-0.8-2.3-2.2-3.6-3.9-3.6h-0.5v8.5h-6.4v-8.5h-0.5c-1.9,0-3.1,1.2-4,3.6
		c-0.8,2.2-1.3,3.8-1.9,4.9h-6.5c1-2,1.7-4.3,2.6-6.6c1-2.7,2.5-5,4.9-5.4l-7.4-9.2L-115.6,140.5L-115.6,140.5z"/>
</g>
</svg>
