<?xml version="1.0" encoding="utf-8"?>
<!-- Generator: Adobe Illustrator 16.0.0, SVG Export Plug-In . SVG Version: 6.00 Build 0)  -->
<!DOCTYPE svg PUBLIC "-//W3C//DTD SVG 1.1//EN" "http://www.w3.org/Graphics/SVG/1.1/DTD/svg11.dtd">
<svg version="1.1" id="Germany" xmlns="http://www.w3.org/2000/svg" xmlns:xlink="http://www.w3.org/1999/xlink" x="0px" y="0px"
	 width="42px" height="42.002px" viewBox="0 0 42 42.002" enable-background="new 0 0 42 42.002" xml:space="preserve">
<path fill="#FFCE00" d="M40.999,39.329c0,0.924-1.497,1.672-3.345,1.672H4.346c-1.848,0-3.345-0.748-3.345-1.672V22.673
	c0-0.924,1.497-1.672,3.345-1.672h33.309c1.848,0,3.345,0.748,3.345,1.672V39.329z"/>
<path d="M40.999,19.329c0,0.924-1.497,1.672-3.345,1.672H4.346c-1.848,0-3.345-0.748-3.345-1.672V2.673
	c0-0.924,1.497-1.672,3.345-1.672h33.309c1.848,0,3.345,0.748,3.345,1.672V19.329z"/>
<line fill="none" stroke="#DD0000" stroke-width="13" stroke-miterlimit="10" x1="40.999" y1="21.001" x2="1.001" y2="21.001"/>
<path fill="none" stroke="#FFFFFF" stroke-width="2" stroke-miterlimit="10" d="M41.003,37.657c0,1.848-1.498,3.344-3.346,3.344
	H4.347c-1.848,0-3.346-1.496-3.346-3.344V4.345c0-1.848,1.498-3.344,3.346-3.344h33.311c1.848,0,3.346,1.496,3.346,3.344V37.657z"/>
</svg>
