<?xml version="1.0" encoding="utf-8"?>
<!-- Generator: Adobe Illustrator 19.0.0, SVG Export Plug-In . SVG Version: 6.00 Build 0)  -->
<svg version="1.1" id="Germany" xmlns="http://www.w3.org/2000/svg" xmlns:xlink="http://www.w3.org/1999/xlink" x="0px" y="0px"
	 viewBox="-128 130 42 42" style="enable-background:new -128 130 42 42;" xml:space="preserve">
<style type="text/css">
	.st0{fill:#FFCE00;}
	.st1{fill:none;stroke:#DD0000;stroke-width:13;stroke-miterlimit:10;}
	.st2{fill:none;stroke:#5B5B5B;stroke-width:2;stroke-miterlimit:10;}
</style>
<path class="st0" d="M-87,169.3c0,0.9-1.5,1.7-3.3,1.7h-33.3c-1.8,0-3.3-0.7-3.3-1.7v-16.7c0-0.9,1.5-1.7,3.3-1.7h33.3
	c1.8,0,3.3,0.7,3.3,1.7L-87,169.3L-87,169.3z"/>
<path d="M-87,149.3c0,0.9-1.5,1.7-3.3,1.7h-33.3c-1.8,0-3.3-0.7-3.3-1.7v-16.7c0-0.9,1.5-1.7,3.3-1.7h33.3c1.8,0,3.3,0.7,3.3,1.7
	L-87,149.3L-87,149.3z"/>
<line class="st1" x1="-87" y1="151" x2="-127" y2="151"/>
<path class="st2" d="M-87,167.7c0,1.8-1.5,3.3-3.3,3.3h-33.3c-1.8,0-3.3-1.5-3.3-3.3v-33.3c0-1.8,1.5-3.3,3.3-3.3h33.3
	c1.8,0,3.3,1.5,3.3,3.3L-87,167.7L-87,167.7z"/>
</svg>
