<?xml version="1.0" encoding="utf-8"?>
<!-- Generator: Adobe Illustrator 16.0.0, SVG Export Plug-In . SVG Version: 6.00 Build 0)  -->
<!DOCTYPE svg PUBLIC "-//W3C//DTD SVG 1.1//EN" "http://www.w3.org/Graphics/SVG/1.1/DTD/svg11.dtd">
<svg version="1.1" id="Home" xmlns="http://www.w3.org/2000/svg" xmlns:xlink="http://www.w3.org/1999/xlink" x="0px" y="0px"
	 width="42px" height="42.002px" viewBox="0 0 42 42.002" enable-background="new 0 0 42 42.002" xml:space="preserve">
<g id="English">
	<path fill="#000575" d="M41.003,37.657c0,1.848-1.498,3.344-3.346,3.344H4.347c-1.848,0-3.346-1.496-3.346-3.344V4.345
		c0-1.848,1.498-3.344,3.346-3.344h33.311c1.848,0,3.346,1.496,3.346,3.344V37.657z"/>
	
		<line fill="none" stroke="#FFFFFF" stroke-width="7.2481" stroke-miterlimit="10" x1="21.001" y1="1.001" x2="21.001" y2="41.001"/>
	
		<line fill="none" stroke="#FFFFFF" stroke-width="7.2481" stroke-miterlimit="10" x1="41.003" y1="21.001" x2="1.001" y2="21.001"/>
	<line fill="none" stroke="#FFFFFF" stroke-width="4.4604" stroke-miterlimit="10" x1="1.983" y1="1.993" x2="40.011" y2="40.021"/>
	<line fill="none" stroke="#FFFFFF" stroke-width="4.4604" stroke-miterlimit="10" x1="1.983" y1="40.021" x2="40.011" y2="1.993"/>
	<line fill="none" stroke="#CC0007" stroke-width="3.0665" stroke-miterlimit="10" x1="1.983" y1="40.021" x2="40.011" y2="1.993"/>
	<line fill="none" stroke="#CC0007" stroke-width="3.0665" stroke-miterlimit="10" x1="1.983" y1="1.993" x2="40.011" y2="40.021"/>
	
		<line fill="none" stroke="#CC0007" stroke-width="4.4604" stroke-miterlimit="10" x1="21.001" y1="1.001" x2="21.001" y2="41.001"/>
	
		<line fill="none" stroke="#CC0007" stroke-width="4.4604" stroke-miterlimit="10" x1="1.001" y1="21.001" x2="41.003" y2="21.001"/>
	<path fill="none" stroke="#FFFFFF" stroke-width="2" stroke-miterlimit="10" d="M41.003,37.657c0,1.848-1.498,3.344-3.346,3.344
		H4.347c-1.848,0-3.346-1.496-3.346-3.344V4.345c0-1.848,1.498-3.344,3.346-3.344h33.311c1.848,0,3.346,1.496,3.346,3.344V37.657z"
		/>
</g>
</svg>
