<?xml version="1.0" encoding="utf-8"?>
<!-- Generator: Adobe Illustrator 19.0.0, SVG Export Plug-In . SVG Version: 6.00 Build 0)  -->
<svg version="1.1" id="Home" xmlns="http://www.w3.org/2000/svg" xmlns:xlink="http://www.w3.org/1999/xlink" x="0px" y="0px"
	 viewBox="-128 130 42 42" style="enable-background:new -128 130 42 42;" xml:space="preserve">
<style type="text/css">
	.st0{fill:#000575;}
	.st1{fill:none;stroke:#FFFFFF;stroke-width:7.2481;stroke-miterlimit:10;}
	.st2{fill:none;stroke:#FFFFFF;stroke-width:4.4604;stroke-miterlimit:10;}
	.st3{fill:none;stroke:#CC0007;stroke-width:3.0665;stroke-miterlimit:10;}
	.st4{fill:none;stroke:#CC0007;stroke-width:4.4604;stroke-miterlimit:10;}
	.st5{fill:none;stroke:#5B5B5B;stroke-width:2;stroke-miterlimit:10;}
</style>
<g id="English">
	<path class="st0" d="M-87,167.7c0,1.8-1.5,3.3-3.3,3.3h-33.3c-1.8,0-3.3-1.5-3.3-3.3v-33.3c0-1.8,1.5-3.3,3.3-3.3h33.3
		c1.8,0,3.3,1.5,3.3,3.3L-87,167.7L-87,167.7z"/>
	<line class="st1" x1="-107" y1="131" x2="-107" y2="171"/>
	<line class="st1" x1="-87" y1="151" x2="-127" y2="151"/>
	<line class="st2" x1="-126" y1="132" x2="-88" y2="170"/>
	<line class="st2" x1="-126" y1="170" x2="-88" y2="132"/>
	<line class="st3" x1="-126" y1="170" x2="-88" y2="132"/>
	<line class="st3" x1="-126" y1="132" x2="-88" y2="170"/>
	<line class="st4" x1="-107" y1="131" x2="-107" y2="171"/>
	<line class="st4" x1="-127" y1="151" x2="-87" y2="151"/>
	<path class="st5" d="M-87,167.7c0,1.8-1.5,3.3-3.3,3.3h-33.3c-1.8,0-3.3-1.5-3.3-3.3v-33.3c0-1.8,1.5-3.3,3.3-3.3h33.3
		c1.8,0,3.3,1.5,3.3,3.3L-87,167.7L-87,167.7z"/>
</g>
</svg>
