<?xml version="1.0" encoding="utf-8"?>
<!-- Generator: Adobe Illustrator 16.0.0, SVG Export Plug-In . SVG Version: 6.00 Build 0)  -->
<!DOCTYPE svg PUBLIC "-//W3C//DTD SVG 1.1//EN" "http://www.w3.org/Graphics/SVG/1.1/DTD/svg11.dtd">
<svg version="1.1" id="Home" xmlns="http://www.w3.org/2000/svg" xmlns:xlink="http://www.w3.org/1999/xlink" x="0px" y="0px"
	 width="42px" height="42px" viewBox="0 0 42 42" enable-background="new 0 0 42 42" xml:space="preserve">
<g id="France">
	<path fill="#BD0000" d="M40.961,37.719c0,1.848-1.498,3.344-3.346,3.344H4.309c-1.848,0-3.346-1.496-3.346-3.344V4.407
		c0-1.848,1.498-3.344,3.346-3.344h33.307c1.848,0,3.346,1.496,3.346,3.344V37.719z"/>
	<line fill="none" stroke="#EBB123" stroke-width="22" stroke-miterlimit="10" x1="40.963" y1="21.063" x2="0.963" y2="21.063"/>
	<g id="escudo">
		<rect x="5.803" y="25.549" fill="#A59B1D" width="1.2" height="1.2"/>
		<rect x="5.803" y="24.349" fill="#C6C65A" width="1.2" height="1.2"/>
		<rect x="5.803" y="23.149" fill="#B40000" width="1.2" height="1.2"/>
		<rect x="5.803" y="21.949" fill="#978348" width="1.2" height="1.2"/>
		<rect x="5.803" y="20.749" fill="#C6C65A" width="1.2" height="1.2"/>
		<rect x="5.803" y="19.549" fill="#A59B1D" width="1.2" height="1.2"/>
		<rect x="8.203" y="25.549" fill="#C30000" width="1.199" height="1.2"/>
		<rect x="8.203" y="24.349" fill="#C30000" width="1.199" height="1.2"/>
		<rect x="8.203" y="23.149" fill="#C30000" width="1.199" height="1.2"/>
		<rect x="8.203" y="21.949" fill="#C30000" width="1.199" height="1.2"/>
		<rect x="8.203" y="20.749" fill="#C30000" width="1.199" height="1.2"/>
		<rect x="8.203" y="19.549" fill="#C30000" width="1.199" height="1.2"/>
		<rect x="9.402" y="25.549" fill="#CABE00" width="1.2" height="1.2"/>
		<rect x="9.402" y="24.349" fill="#CABE00" width="1.2" height="1.2"/>
		<rect x="9.402" y="23.149" fill="#CABE00" width="1.2" height="1.2"/>
		<rect x="9.402" y="21.949" fill="#006CB9" width="1.2" height="1.2"/>
		<rect x="9.402" y="20.749" fill="#CABE00" width="1.2" height="1.2"/>
		<rect x="9.402" y="19.549" fill="#C30000" width="1.2" height="1.2"/>
		<rect x="10.603" y="25.549" fill="#92857B" width="1.2" height="1.2"/>
		<rect x="10.603" y="24.349" fill="#CABE00" width="1.2" height="1.2"/>
		<rect x="10.603" y="23.149" fill="#2A5E72" width="1.2" height="1.2"/>
		<rect x="10.603" y="21.949" fill="#0079C0" width="1.2" height="1.2"/>
		<rect x="10.603" y="20.749" fill="#C30000" width="1.2" height="1.2"/>
		<rect x="10.603" y="19.549" fill="#C30000" width="1.2" height="1.2"/>
		<rect x="11.803" y="25.549" fill="#C97D00" width="1.2" height="1.2"/>
		<rect x="11.803" y="24.349" fill="#C97D00" width="1.2" height="1.2"/>
		<rect x="11.803" y="23.149" fill="#C97D00" width="1.2" height="1.2"/>
		<rect x="11.803" y="21.949" fill="#CCCCCC" width="1.2" height="1.2"/>
		<rect x="11.803" y="20.749" fill="#F991B4" width="1.2" height="1.2"/>
		<rect x="11.803" y="19.549" fill="#CCCCCC" width="1.2" height="1.2"/>
		<rect x="13.003" y="25.549" fill="#C89E00" width="1.2" height="1.2"/>
		<rect x="13.003" y="24.349" fill="#C89E00" width="1.2" height="1.2"/>
		<rect x="13.003" y="23.149" fill="#C89E00" width="1.2" height="1.2"/>
		<rect x="13.003" y="21.949" fill="#F991B4" width="1.2" height="1.2"/>
		<rect x="13.003" y="20.749" fill="#CCCCCC" width="1.2" height="1.2"/>
		<rect x="13.003" y="19.549" fill="#CCCCCC" width="1.2" height="1.2"/>
		<rect x="8.203" y="17.149" fill="#C30000" width="1.199" height="1.2"/>
		<rect x="9.402" y="17.149" fill="#7A5F03" width="1.2" height="1.2"/>
		<rect x="10.603" y="17.149" fill="#948200" width="1.2" height="1.2"/>
		<rect x="11.803" y="17.149" fill="#C30000" width="1.2" height="1.2"/>
		<rect x="10.603" y="15.949" fill="#648C81" width="1.2" height="1.2"/>
		<rect x="11.803" y="15.949" fill="#C7C878" width="1.2" height="1.2"/>
		<rect x="13.003" y="17.149" fill="#C30000" width="1.2" height="1.2"/>
		<rect x="9.402" y="18.349" fill="#948200" width="1.2" height="1.2"/>
		<rect x="10.603" y="18.349" fill="#948200" width="1.2" height="1.2"/>
		<rect x="11.803" y="18.349" fill="#A59B1D" width="1.2" height="1.2"/>
		<rect x="13.003" y="18.349" fill="#948200" width="1.2" height="1.2"/>
		<rect x="15.402" y="25.549" fill="#C9B500" width="1.2" height="1.2"/>
		<rect x="15.402" y="24.349" fill="#CCCCCC" width="1.2" height="1.2"/>
		<rect x="15.402" y="23.149" fill="#CC0000" width="1.2" height="1.2"/>
		<rect x="15.402" y="21.949" fill="#CCCCCC" width="1.2" height="1.2"/>
		<rect x="16.603" y="21.949" fill="#DEDC2A" width="1.2" height="1.2"/>
		<rect x="15.402" y="20.749" fill="#CCCCCC" width="1.2" height="1.2"/>
		<rect x="15.402" y="19.549" fill="#C9B500" width="1.2" height="1.2"/>
		<rect x="15.402" y="18.349" fill="#BAB726" width="1.2" height="1.2"/>
	</g>
	<path fill="none" stroke="#FFFFFF" stroke-width="2" stroke-miterlimit="10" d="M40.965,37.719c0,1.848-1.498,3.344-3.346,3.344
		H4.309c-1.848,0-3.346-1.496-3.346-3.344V4.407c0-1.848,1.498-3.344,3.346-3.344h33.311c1.848,0,3.346,1.496,3.346,3.344V37.719z"
		/>
</g>
</svg>
