<?xml version="1.0" encoding="utf-8"?>
<!-- Generator: Adobe Illustrator 19.0.0, SVG Export Plug-In . SVG Version: 6.00 Build 0)  -->
<svg version="1.1" id="Home" xmlns="http://www.w3.org/2000/svg" xmlns:xlink="http://www.w3.org/1999/xlink" x="0px" y="0px"
	 viewBox="-128 130 42 42" style="enable-background:new -128 130 42 42;" xml:space="preserve">
<style type="text/css">
	.st0{fill:#BD0000;}
	.st1{fill:none;stroke:#EBB123;stroke-width:22;stroke-miterlimit:10;}
	.st2{fill:#A59B1D;}
	.st3{fill:#C6C65A;}
	.st4{fill:#B40000;}
	.st5{fill:#978348;}
	.st6{fill:#C30000;}
	.st7{fill:#CABE00;}
	.st8{fill:#006CB9;}
	.st9{fill:#92857B;}
	.st10{fill:#2A5E72;}
	.st11{fill:#0079C0;}
	.st12{fill:#C97D00;}
	.st13{fill:#CCCCCC;}
	.st14{fill:#F991B4;}
	.st15{fill:#C89E00;}
	.st16{fill:#7A5F03;}
	.st17{fill:#948200;}
	.st18{fill:#648C81;}
	.st19{fill:#C7C878;}
	.st20{fill:#C9B500;}
	.st21{fill:#CC0000;}
	.st22{fill:#DEDC2A;}
	.st23{fill:#BAB726;}
	.st24{fill:none;stroke:#5B5B5B;stroke-width:2;stroke-miterlimit:10;}
</style>
<path class="st0" d="M-87,167.7c0,1.8-1.5,3.3-3.3,3.3h-33.3c-1.8,0-3.3-1.5-3.3-3.3v-33.3c0-1.8,1.5-3.3,3.3-3.3h33.3
	c1.8,0,3.3,1.5,3.3,3.3L-87,167.7L-87,167.7z"/>
<line class="st1" x1="-87" y1="151.1" x2="-127" y2="151.1"/>
<g id="escudo">
	<rect x="-122.2" y="155.5" class="st2" width="1.2" height="1.2"/>
	<rect x="-122.2" y="154.3" class="st3" width="1.2" height="1.2"/>
	<rect x="-122.2" y="153.1" class="st4" width="1.2" height="1.2"/>
	<rect x="-122.2" y="151.9" class="st5" width="1.2" height="1.2"/>
	<rect x="-122.2" y="150.7" class="st3" width="1.2" height="1.2"/>
	<rect x="-122.2" y="149.5" class="st2" width="1.2" height="1.2"/>
	<rect x="-119.8" y="155.5" class="st6" width="1.2" height="1.2"/>
	<rect x="-119.8" y="154.3" class="st6" width="1.2" height="1.2"/>
	<rect x="-119.8" y="153.1" class="st6" width="1.2" height="1.2"/>
	<rect x="-119.8" y="151.9" class="st6" width="1.2" height="1.2"/>
	<rect x="-119.8" y="150.7" class="st6" width="1.2" height="1.2"/>
	<rect x="-119.8" y="149.5" class="st6" width="1.2" height="1.2"/>
	<rect x="-118.6" y="155.5" class="st7" width="1.2" height="1.2"/>
	<rect x="-118.6" y="154.3" class="st7" width="1.2" height="1.2"/>
	<rect x="-118.6" y="153.1" class="st7" width="1.2" height="1.2"/>
	<rect x="-118.6" y="151.9" class="st8" width="1.2" height="1.2"/>
	<rect x="-118.6" y="150.7" class="st7" width="1.2" height="1.2"/>
	<rect x="-118.6" y="149.5" class="st6" width="1.2" height="1.2"/>
	<rect x="-117.4" y="155.5" class="st9" width="1.2" height="1.2"/>
	<rect x="-117.4" y="154.3" class="st7" width="1.2" height="1.2"/>
	<rect x="-117.4" y="153.1" class="st10" width="1.2" height="1.2"/>
	<rect x="-117.4" y="151.9" class="st11" width="1.2" height="1.2"/>
	<rect x="-117.4" y="150.7" class="st6" width="1.2" height="1.2"/>
	<rect x="-117.4" y="149.5" class="st6" width="1.2" height="1.2"/>
	<rect x="-116.2" y="155.5" class="st12" width="1.2" height="1.2"/>
	<rect x="-116.2" y="154.3" class="st12" width="1.2" height="1.2"/>
	<rect x="-116.2" y="153.1" class="st12" width="1.2" height="1.2"/>
	<rect x="-116.2" y="151.9" class="st13" width="1.2" height="1.2"/>
	<rect x="-116.2" y="150.7" class="st14" width="1.2" height="1.2"/>
	<rect x="-116.2" y="149.5" class="st13" width="1.2" height="1.2"/>
	<rect x="-115" y="155.5" class="st15" width="1.2" height="1.2"/>
	<rect x="-115" y="154.3" class="st15" width="1.2" height="1.2"/>
	<rect x="-115" y="153.1" class="st15" width="1.2" height="1.2"/>
	<rect x="-115" y="151.9" class="st14" width="1.2" height="1.2"/>
	<rect x="-115" y="150.7" class="st13" width="1.2" height="1.2"/>
	<rect x="-115" y="149.5" class="st13" width="1.2" height="1.2"/>
	<rect x="-119.8" y="147.1" class="st6" width="1.2" height="1.2"/>
	<rect x="-118.6" y="147.1" class="st16" width="1.2" height="1.2"/>
	<rect x="-117.4" y="147.1" class="st17" width="1.2" height="1.2"/>
	<rect x="-116.2" y="147.1" class="st6" width="1.2" height="1.2"/>
	<rect x="-117.4" y="145.9" class="st18" width="1.2" height="1.2"/>
	<rect x="-116.2" y="145.9" class="st19" width="1.2" height="1.2"/>
	<rect x="-115" y="147.1" class="st6" width="1.2" height="1.2"/>
	<rect x="-118.6" y="148.3" class="st17" width="1.2" height="1.2"/>
	<rect x="-117.4" y="148.3" class="st17" width="1.2" height="1.2"/>
	<rect x="-116.2" y="148.3" class="st2" width="1.2" height="1.2"/>
	<rect x="-115" y="148.3" class="st17" width="1.2" height="1.2"/>
	<rect x="-112.6" y="155.5" class="st20" width="1.2" height="1.2"/>
	<rect x="-112.6" y="154.3" class="st13" width="1.2" height="1.2"/>
	<rect x="-112.6" y="153.1" class="st21" width="1.2" height="1.2"/>
	<rect x="-112.6" y="151.9" class="st13" width="1.2" height="1.2"/>
	<rect x="-111.4" y="151.9" class="st22" width="1.2" height="1.2"/>
	<rect x="-112.6" y="150.7" class="st13" width="1.2" height="1.2"/>
	<rect x="-112.6" y="149.5" class="st20" width="1.2" height="1.2"/>
	<rect x="-112.6" y="148.3" class="st23" width="1.2" height="1.2"/>
</g>
<path class="st24" d="M-87,167.7c0,1.8-1.5,3.3-3.3,3.3h-33.3c-1.8,0-3.3-1.5-3.3-3.3v-33.3c0-1.8,1.5-3.3,3.3-3.3h33.3
	c1.8,0,3.3,1.5,3.3,3.3L-87,167.7L-87,167.7z"/>
</svg>
