<?xml version="1.0" encoding="utf-8"?>
<!-- Generator: Adobe Illustrator 16.0.0, SVG Export Plug-In . SVG Version: 6.00 Build 0)  -->
<!DOCTYPE svg PUBLIC "-//W3C//DTD SVG 1.1//EN" "http://www.w3.org/Graphics/SVG/1.1/DTD/svg11.dtd">
<svg version="1.1" id="Home" xmlns="http://www.w3.org/2000/svg" xmlns:xlink="http://www.w3.org/1999/xlink" x="0px" y="0px"
	 width="42px" height="42.002px" viewBox="0 0 42 42.002" enable-background="new 0 0 42 42.002" xml:space="preserve">
<g id="France">
	<path fill="#002395" d="M21.002,37.657c0,1.848-0.749,3.344-1.673,3.344H2.674c-0.924,0-1.673-1.496-1.673-3.344V4.345
		c0-1.848,0.749-3.344,1.673-3.344h16.655c0.924,0,1.673,1.496,1.673,3.344V37.657z"/>
	<path fill="#ED2939" d="M41.003,37.657c0,1.848-0.749,3.344-1.673,3.344H22.675c-0.924,0-1.673-1.496-1.673-3.344V4.345
		c0-1.848,0.749-3.344,1.673-3.344H39.33c0.924,0,1.673,1.496,1.673,3.344V37.657z"/>
	<line fill="none" stroke="#FFFFFF" stroke-width="13" stroke-miterlimit="10" x1="21.001" y1="1.001" x2="21.001" y2="41.001"/>
	<path fill="none" stroke="#FFFFFF" stroke-width="2" stroke-miterlimit="10" d="M41.003,37.657c0,1.848-1.498,3.344-3.346,3.344
		H4.347c-1.848,0-3.346-1.496-3.346-3.344V4.345c0-1.848,1.498-3.344,3.346-3.344h33.311c1.848,0,3.346,1.496,3.346,3.344V37.657z"
		/>
</g>
</svg>
