<?xml version="1.0" encoding="utf-8"?>
<!-- Generator: Adobe Illustrator 19.0.0, SVG Export Plug-In . SVG Version: 6.00 Build 0)  -->
<svg version="1.1" id="Layer_1" xmlns="http://www.w3.org/2000/svg" xmlns:xlink="http://www.w3.org/1999/xlink" x="0px" y="0px"
	 viewBox="0 0 300 300" style="enable-background:new 0 0 300 300;" xml:space="preserve">
<style type="text/css">
	.st0{fill:#FFFFFF;stroke:#000000;stroke-width:4;}
	.st1{fill:#FFFFFF;}
</style>
<path class="st0" d="M34.7,162.7c0,0,15.7-15.9,66.3-9.3s67.2,21.5,67.2,21.5l17.5,23.4L34,226.3L34.7,162.7z"/>
<path class="st0" d="M140,190.3c0,0,70-39.3,91-45c21-5.7,30.2-2.3,30.2-2.3l13.5,2.7V215h-136L140,190.3z"/>
<path class="st0" d="M34.7,220.7c0,0,59.7-30,105.3-30.3c45.7-0.3,125,13,125,13v26H34.7V220.7z"/>
<path class="st1" d="M13.4,253.2c-0.6-66.6-1.1-132.7-1.7-199.5c92.2,0,183.9,0,276,0c0,65.4,0,131.3,0,197.7
	C196.3,252,105.1,252.6,13.4,253.2z M261.2,79.8c-74.7,0-148.7,0-222.3,0c0,49,0,97.4,0,145c74.7,0,148.4,0,222.3,0
	C261.2,175.8,261.2,127.8,261.2,79.8z"/>
<path class="st1" d="M203.5,107.7c0-11.1,8.9-19.8,20.1-19.7c10.9,0.1,19.6,8.9,19.5,19.8c-0.1,11-9.3,20-20.1,19.8
	C212,127.4,203.5,118.7,203.5,107.7z"/>
<path class="st1" d="M36.3,88c0,0,19.3-2.3,26.3,1.4C69.7,93,72.3,99,79,99s23,1.3,30.3,4.3c7.3,3,14.3,1.7,15,9
	c0.7,7.3-16,13.9-21.7,15.3c-5.7,1.4-24,6.1-39.7,2.7c-15.7-3.3-24.1-2.7-24.1-2.7L36.3,88z"/>
</svg>
