<?xml version="1.0" encoding="utf-8"?>
<!-- Generator: Adobe Illustrator 19.0.0, SVG Export Plug-In . SVG Version: 6.00 Build 0)  -->
<svg version="1.1" id="Layer_1" xmlns="http://www.w3.org/2000/svg" xmlns:xlink="http://www.w3.org/1999/xlink" x="0px" y="0px"
	 viewBox="50 -50 300 300" style="enable-background:new 50 -50 300 300;" xml:space="preserve">
<style type="text/css">
	.st0{fill:#999999;}
</style>
<path class="st0" d="M281.6,171.2c-30.2,0-59.9,0-89.9,0c0-49.8,0-99.5,0-149.3c47.9,0,95.6,0,143.7,0c0.1,1.5,0.4,3.1,0.4,4.7
	c0,12.6,0,25.1,0.1,37.7c0,1.6-0.5,2.6-2.2,3.5c-16.6,9.1-33.1,18.3-49.6,27.4c-1.8,1-2.4,2-2.4,3.7c0.1,23,0,46,0,69
	C281.6,168.9,281.6,169.9,281.6,171.2z M263.2,36.7c-5.3,0-10.5-0.1-15.7,0.1c-0.7,0-1.9,1-1.9,1.6c-0.2,3.8-0.2,7.7,0,11.5
	c0,0.6,1,1.5,1.6,1.6c5.3,0.1,10.5,0.1,16,0.1C263.2,46.5,263.2,41.8,263.2,36.7z M245.7,156c5.9,0,11.8,0,17.5,0
	c0-4.9,0-9.7,0-14.5c-5.9,0-11.6,0-17.5,0C245.7,146.4,245.7,151.1,245.7,156z M299.3,36.9c-6.1,0-11.8,0-17.5,0c0,5,0,9.7,0,14.5
	c6,0,11.7,0,17.5,0C299.3,46.5,299.3,41.9,299.3,36.9z M227.2,51.4c0-4.9,0-9.7,0-14.5c-5.9,0-11.7,0-17.4,0c0,5,0,9.7,0,14.5
	C215.7,51.4,221.2,51.4,227.2,51.4z M227.2,156.1c0-5,0-9.8,0-14.5c-5.9,0-11.6,0-17.3,0c0,5,0,9.7,0,14.5
	C215.7,156.1,221.3,156.1,227.2,156.1z"/>
<path class="st0" d="M88,22.5c29.8,0,59.2,0,89,0c0,49.3,0,98.6,0,148c-29.5,0-59.1,0-89,0C88,121.2,88,72,88,22.5z"/>
<path class="st0" d="M118.3-2.1c0-2.1-0.2-3.7,0-5.3c0.9-5.1,5.6-9.2,11-9.3c9.8-0.1,19.5-0.1,29.3,0c5.7,0.1,10.3,4.8,10.6,10.5
	c0.1,1.3,0,2.5,0,4.1c1.2,0,2.3,0,3.3,0c9.1,0,18.2,0,27.2,0c6.8,0,11.6,4.8,11.7,11.6c0,3.2,0,6.4,0,10.1c-0.9,0-2,0-3,0
	c-42.9,0-85.9,0-128.8,0.1c-2.8,0-3.9-0.7-3.6-3.6c0.2-2.1,0-4.3,0-6.4C76.1,3.2,81.2-2,87.7-2.1c9-0.1,18,0,26.9,0
	C115.7-2.1,116.8-2.1,118.3-2.1z"/>
<path class="st0" d="M210.4,173.4c0,3.4,0.1,6.8,0,10.2c-0.3,5.9-5.2,10.6-11.2,10.6c-9.2,0.1-18.4,0-27.5,0c-1.1,0-2.1,0-3.5,0
	c0,1.5,0,2.7,0,4c-0.2,6.3-5.2,11.2-11.5,11.3c-8.8,0-17.6,0-26.4,0c-8.2,0-13-4.8-13.1-13.1c0-0.6,0-1.2,0-2.1c-1.2,0-2.2,0-3.2,0
	c-8.9,0-17.8,0-26.7,0c-7.2,0-12.3-5.1-12.3-12.4c0-2.7,0-5.5,0-8.5C120.2,173.4,165.3,173.4,210.4,173.4z"/>
</svg>
