<?xml version="1.0" encoding="utf-8"?>
<!-- Generator: Adobe Illustrator 16.0.0, SVG Export Plug-In . SVG Version: 6.00 Build 0)  -->
<!DOCTYPE svg PUBLIC "-//W3C//DTD SVG 1.1//EN" "http://www.w3.org/Graphics/SVG/1.1/DTD/svg11.dtd">
<svg version="1.1" id="Layer_1" xmlns="http://www.w3.org/2000/svg" xmlns:xlink="http://www.w3.org/1999/xlink" x="0px" y="0px"
	 width="300px" height="300px" viewBox="0 0 300 300" enable-background="new 0 0 300 300" xml:space="preserve">
<path fill-rule="evenodd" clip-rule="evenodd" fill="#FFFFFF" d="M231.58,221.166c-30.206,0-59.9,0-89.944,0
	c0-49.769,0-99.459,0-149.333c47.892,0,95.624,0,143.695,0c0.124,1.536,0.361,3.125,0.365,4.714
	c0.031,12.565-0.019,25.13,0.061,37.695c0.011,1.623-0.525,2.616-2.218,3.545c-16.572,9.109-33.059,18.325-49.643,27.419
	c-1.803,0.989-2.363,2.019-2.357,3.725c0.062,22.993,0.041,45.986,0.041,68.979C231.58,218.917,231.58,219.926,231.58,221.166z
	 M213.201,86.713c-5.35,0-10.526-0.062-15.695,0.076c-0.68,0.018-1.862,1.046-1.888,1.633c-0.172,3.832-0.156,7.672-0.012,11.504
	c0.021,0.555,1.043,1.539,1.629,1.552c5.257,0.122,10.52,0.071,15.966,0.071C213.201,96.527,213.201,91.793,213.201,86.713z
	 M195.723,205.98c5.949,0,11.758,0,17.458,0c0-4.95,0-9.682,0-14.501c-5.931,0-11.596,0-17.458,0
	C195.723,196.36,195.723,201.092,195.723,205.98z M249.293,86.912c-6.081,0-11.795,0-17.521,0c0,4.959,0,9.702,0,14.473
	c5.955,0,11.715,0,17.521,0C249.293,96.535,249.293,91.866,249.293,86.912z M177.24,101.444c0-4.948,0-9.694,0-14.53
	c-5.935,0-11.665,0-17.408,0c0,4.951,0,9.682,0,14.53C165.668,101.444,171.25,101.444,177.24,101.444z M177.183,206.091
	c0-5.014,0-9.757,0-14.529c-5.899,0-11.636,0-17.334,0c0,4.965,0,9.697,0,14.529C165.704,206.091,171.29,206.091,177.183,206.091z"
	/>
<path fill-rule="evenodd" clip-rule="evenodd" fill="#FFFFFF" d="M38,72.5c29.769,0,59.24,0,88.956,0c0,49.304,0,98.561,0,148
	c-29.532,0-59.149,0-88.956,0C38,171.241,38,121.983,38,72.5z"/>
<path fill-rule="evenodd" clip-rule="evenodd" fill="#FFFFFF" d="M68.332,47.914c0-2.058-0.227-3.745,0.042-5.35
	c0.86-5.14,5.631-9.221,10.95-9.271c9.76-0.091,19.522-0.097,29.283,0.002c5.667,0.058,10.335,4.815,10.571,10.489
	c0.052,1.252,0.007,2.508,0.007,4.129c1.222,0,2.259,0,3.296,0c9.078,0,18.155-0.017,27.233,0.006
	c6.775,0.017,11.592,4.821,11.655,11.599c0.031,3.218,0.006,6.437,0.006,10.075c-0.925,0-1.952,0-2.979,0
	c-42.949,0-85.897-0.026-128.846,0.06c-2.792,0.006-3.88-0.695-3.571-3.56c0.229-2.123,0.026-4.291,0.049-6.438
	c0.065-6.495,5.209-11.692,11.722-11.729c8.98-0.051,17.96-0.013,26.941-0.013C65.747,47.914,66.803,47.914,68.332,47.914z"/>
<path fill-rule="evenodd" clip-rule="evenodd" fill="#FFFFFF" d="M160.368,223.441c0,3.38,0.128,6.78-0.027,10.168
	c-0.271,5.887-5.241,10.602-11.16,10.635c-9.179,0.051-18.358,0.014-27.537,0.014c-1.051,0-2.103,0-3.458,0
	c0,1.492,0.035,2.732-0.006,3.97c-0.208,6.296-5.241,11.241-11.5,11.259c-8.788,0.023-17.577,0.008-26.365,0.005
	c-8.192-0.001-13.012-4.817-13.104-13.088c-0.006-0.579-0.001-1.157-0.001-2.146c-1.162,0-2.194,0-3.227,0
	c-8.886,0-17.772,0.013-26.658-0.004c-7.247-0.014-12.285-5.088-12.301-12.354c-0.006-2.728-0.001-5.455-0.001-8.459
	C70.235,223.441,115.263,223.441,160.368,223.441z"/>
</svg>
