<?xml version="1.0" encoding="utf-8"?>
<!-- Generator: Adobe Illustrator 19.0.0, SVG Export Plug-In . SVG Version: 6.00 Build 0)  -->
<svg version="1.1" id="Layer_1" xmlns="http://www.w3.org/2000/svg" xmlns:xlink="http://www.w3.org/1999/xlink" x="0px" y="0px"
	 viewBox="0 0 200 200" style="enable-background:new 0 0 200 200;" xml:space="preserve">
<g>
	<path d="M200,119c-3,6.8-8.2,9.1-15.5,9.1c-56.3-0.2-112.6-0.2-168.9,0c-7.4,0-12.6-2.2-15.5-9.1c0-2,0-4,0-6
		c2.9-6.9,8.1-9.2,15.5-9.1c21.6,0.3,43.2,0.1,64.9,0.1c3,0,6.1-0.2,8.9,0.7c10.1,3.3,20.6,5.9,29.8,10.8
		c15.6,8.3,29.6,7.6,43.7-2.8c4.5-3.3,9.6-6.4,14.9-7.7c12.9-3.1,18.3-0.8,22.3,7.9C200,115,200,117,200,119z"/>
	<path d="M0,92c2.1-0.7,4.3-1.9,6.4-1.9c62.4-0.1,124.8-0.1,187.2,0c2.1,0,4.3,1.2,6.4,1.9c0,1.3,0,2.7,0,4
		c-2.8,0.7-5.7,2.1-8.4,1.9c-11.4-1-21.3,2.3-30.5,8.7c-3.3,2.3-6.8,4.1-10.3,6.1c-6.5,3.7-13.1,4.4-20,1.2
		c-6.2-2.8-12.5-5.5-18.7-8.3c-11.7-5.3-23.8-8-36.7-7.7c-22.8,0.4-45.6,0.2-68.4,0c-2.3,0-4.6-1.2-6.9-1.9C0,94.6,0,93.3,0,92z"/>
	<path d="M187.9,81.7c-58.7,0-117,0-175.8,0C12.4,65.3,20.5,54,34,46.1c12.9-7.5,27.1-10.8,41.8-12.5c26.1-3.1,51.9-2,77,6.5
		c9.2,3.1,17.7,7.7,24.6,14.8C184.4,62.2,187.9,71.1,187.9,81.7z"/>
	<path d="M187.9,136.2c-0.6,11.2-7.1,17.5-16.1,21.9c-11.1,5.4-23.1,7.5-35.2,8.4c-28.6,2.1-57.3,3-85.7-1.9
		c-9.3-1.6-18.5-5.2-27.1-9.3c-7.4-3.5-11.5-10.3-11.7-19.2C70.6,136.2,129,136.2,187.9,136.2z"/>
</g>
</svg>
