<?xml version="1.0" encoding="utf-8"?>
<!-- Generator: Adobe Illustrator 19.0.0, SVG Export Plug-In . SVG Version: 6.00 Build 0)  -->
<svg version="1.1" id="Layer_1" xmlns="http://www.w3.org/2000/svg" xmlns:xlink="http://www.w3.org/1999/xlink" x="0px" y="0px"
	 viewBox="0 0 300 300" style="enable-background:new 0 0 300 300;" xml:space="preserve">
<style type="text/css">
	.st0{fill:#6E6E6E;}
</style>
<path id="XMLID_101_" class="st0" d="M81.2,192.2c-9.4-4.3-18.2-8-26.8-12.4c-4.2-2.1-7.9-5.1-11.5-8.1c-15.4-12.9-15.6-28-0.6-41.4
	c9.3-8.3,20.4-13.2,32.1-17.1c2.3-0.8,4.6-1.5,7.1-2.3c-1.1-6.2-2.4-12.2-3.1-18.3c-1.2-10.5-1.5-21.1,2.1-31.4
	c4.7-13.3,14.4-18.9,28.2-16c13.3,2.8,24.2,10,34.5,18.4c2.6,2.1,5.2,4.4,8,6.8c1.2-1,2.3-2,3.4-2.8c8.7-6.2,17.3-12.6,26.4-18.3
	c3.7-2.4,8.4-3.7,12.8-4.5c16.4-2.9,26.6,5.9,29.4,24.5c1.8,11.9,0.7,23.7-1.5,35.4c-0.4,1.9-0.7,3.8-1.2,6.3
	c1.9,0.6,3.6,1.3,5.4,1.9c11.4,3.6,22.2,8.4,31.7,15.9c17.1,13.6,17.4,29,0.8,43.2c-8.7,7.4-18.8,12.1-29.4,16
	c-2.4,0.9-4.8,1.9-7.3,2.8c1,6.6,2.8,13,2.8,19.4c0,9.3,0,19-2.3,28c-4.1,16.2-15.7,22-31.8,17.6c-11.9-3.2-21.8-10-31.1-17.8
	c-2.6-2.2-5.2-4.4-7.8-6.8c-4.3,3.6-8.2,7.2-12.5,10.4c-9.7,7.3-20,13.4-32.3,15.2c-12.4,1.9-21.3-3.2-25.7-15
	c-4.9-13.1-3.8-26.6-1.6-40C79.8,198.4,80.6,195.1,81.2,192.2z M151.2,190c5.8-0.3,11.7-0.7,17.5-0.7c3.3,0,5.4-0.9,7.1-3.9
	c6-10.9,12.4-21.7,18.3-32.7c0.8-1.5,0.6-4.2-0.3-5.7c-6-10.6-12.3-21-18.7-31.4c-0.9-1.5-3.3-3-5-3c-12.5-0.3-25-0.3-37.5,0
	c-1.7,0-4.1,1.5-5,2.9c-6.3,10.4-12.5,20.9-18.4,31.6c-1,1.9-1,5.2,0,7.1c4.8,9.2,10.2,18.1,15,27.3c3,5.9,7,8.7,13.8,8
	C142.4,189.1,146.8,189.8,151.2,190z M143.7,77.8C132.8,67.6,121.4,58,106,55c-8.6-1.7-13.4,1-16.1,9.5c-4.8,14.8-2.5,29.4,1.5,43.9
	c10.4-1.5,20.4-2.8,30.3-4.3c1-0.2,2.2-0.8,2.8-1.6C131,94.3,137.2,86.3,143.7,77.8z M83.6,181.7c4-10.1,7.8-19.4,11.5-28.8
	c0.4-1,0.6-2.3,0.2-3.3c-3.7-9.7-7.6-19.3-11.5-29.1c-13.4,4.3-26.5,8.8-36.7,18.7c-7.8,7.6-8,14.6-0.4,22.5
	C56.8,172.3,70,177.4,83.6,181.7z M144.2,224.7c-5.8-7.1-11.5-13.7-16.7-20.8c-2.6-3.6-5.4-5.4-9.9-5.6c-6-0.3-11.9-1.5-17.9-2.4
	c-2.8-0.4-5.6-0.9-8.7-1.4c-0.9,4.2-1.7,7.8-2.3,11.5c-1.7,10.5-2.6,21,0.9,31.3c2.9,8.5,8.2,11.5,16.9,9.7
	C121.7,244,133.2,234.8,144.2,224.7z M158.4,77.6c4.7,5.8,9.5,10.7,13.1,16.4c4.4,7.1,9.9,10.7,18.4,11c6.9,0.2,13.7,2,22,3.3
	c0.8-10.4,2.2-20.4,2.2-30.4c0-5.4-1.5-11-3.4-16.1c-2.4-6.4-6.9-8.7-13.6-7.5C181.4,57.4,169.9,67.3,158.4,77.6z M219.3,182
	c9-4.3,18.1-8.1,26.6-12.9c4.4-2.5,8.3-6.3,11.6-10.2c4.6-5.5,4.6-10.9,0-16.4c-10.2-12.3-24.6-17.1-39-21.9
	c-4,9.9-7.7,19-11.3,28.2c-0.4,1.1-0.4,2.6,0,3.6C210.9,161.7,214.8,171,219.3,182z M159.2,224.4c10.7,9.7,21.3,19.1,35.7,22.4
	c9.3,2.1,14.4-0.7,17.3-9.6c4.7-14.4,2.5-28.7-0.4-43.2c-10.5,1.5-20.6,2.9-30.7,4.5c-1,0.2-2.1,0.9-2.8,1.7
	C172,208,165.9,215.9,159.2,224.4z M136.6,200c5.3,6.2,9.8,11.5,14.8,17.4c4.9-5.9,9.2-11.3,14.2-17.4
	C155.6,200,146.8,200,136.6,200z M200.5,162.7c-4.9,8.7-9.2,16.3-14.2,25.1c8.1-1.4,14.8-2.6,22.3-3.8
	C205.9,176.7,203.3,170.2,200.5,162.7z M101.4,162.9c-2.8,7.4-5.2,14-8,21.5c7.8,1.2,14.7,2.3,22.6,3.5
	C110.9,179.2,106.5,171.6,101.4,162.9z M200.2,138.8c2.8-7.5,5.2-13.9,7.8-21c-7.7-1.4-14.4-2.6-22.2-3.9
	C190.8,122.6,195.2,130.1,200.2,138.8z M116,114.1c-7.8,1.4-14.6,2.6-22,3.9c2.7,7.2,5.1,13.6,7.9,20.9
	C106.8,130.2,111.1,122.7,116,114.1z M165,102.1c-4.9-6-9.3-11.3-14-17.2c-4.9,5.9-9.3,11.2-14.3,17.2
	C146.5,102.1,155.1,102.1,165,102.1z"/>
<path id="XMLID_85_" class="st0" d="M150.8,129.4c12-0.1,21.5,9.4,21.5,21.2c0,11.8-9.6,21.4-21.5,21.3c-11.7-0.1-21.1-9.4-21.3-21
	C129.5,139,138.9,129.4,150.8,129.4z"/>
</svg>
