<?xml version="1.0" encoding="utf-8"?>
<!-- Generator: Adobe Illustrator 19.0.0, SVG Export Plug-In . SVG Version: 6.00 Build 0)  -->
<svg version="1.1" id="Layer_1" xmlns="http://www.w3.org/2000/svg" xmlns:xlink="http://www.w3.org/1999/xlink" x="0px" y="0px"
	 viewBox="0 0 300 300" style="enable-background:new 0 0 300 300;" xml:space="preserve">
<style type="text/css">
	.st0{opacity:0.5;fill:#C0C41C;}
	.st1{fill:#999999;}
	.st2{opacity:0.5;fill:url(#SVGID_1_);}
</style>
<rect x="84.2" y="129.9" class="st0" width="18" height="18.3"/>
<rect x="106.3" y="129.9" class="st0" width="18" height="18.3"/>
<rect x="84.3" y="151.8" class="st0" width="18" height="18.3"/>
<rect x="106.5" y="151.8" class="st0" width="18" height="18.3"/>
<path class="st1" d="M150,34l-85.5,92.5V266H128v-77.5h48.7V266h58.8V126L150,34z M128,173.9H80.7v-47.2H128V173.9z M220.5,173.9
	h-47.3v-47.2h47.3V173.9z"/>
<rect x="176.7" y="129.9" class="st0" width="18" height="18.3"/>
<rect x="198.8" y="129.9" class="st0" width="18" height="18.3"/>
<rect x="176.8" y="151.8" class="st0" width="18" height="18.3"/>
<rect x="199" y="151.8" class="st0" width="18" height="18.3"/>
<rect x="128" y="188.5" class="st0" width="48.7" height="77.5"/>
<linearGradient id="SVGID_1_" gradientUnits="userSpaceOnUse" x1="171" y1="291.3333" x2="171" y2="266">
	<stop  offset="0" style="stop-color:#FFFFFF"/>
	<stop  offset="9.268432e-02" style="stop-color:#FCFDF5"/>
	<stop  offset="0.2477" style="stop-color:#F5F6DC"/>
	<stop  offset="0.4459" style="stop-color:#EAEBB2"/>
	<stop  offset="0.6795" style="stop-color:#D9DC77"/>
	<stop  offset="0.9403" style="stop-color:#C5C92E"/>
	<stop  offset="1" style="stop-color:#C0C41C"/>
</linearGradient>
<polygon class="st2" points="176.7,266 214,291.3 156,291.3 128,266 "/>
</svg>
