<?xml version="1.0" encoding="utf-8"?>
<!-- Generator: Adobe Illustrator 16.0.0, SVG Export Plug-In . SVG Version: 6.00 Build 0)  -->
<!DOCTYPE svg PUBLIC "-//W3C//DTD SVG 1.1//EN" "http://www.w3.org/Graphics/SVG/1.1/DTD/svg11.dtd">
<svg version="1.1" id="Layer_1" xmlns="http://www.w3.org/2000/svg" xmlns:xlink="http://www.w3.org/1999/xlink" x="0px" y="0px"
	 width="300px" height="300px" viewBox="0 0 300 300" enable-background="new 0 0 300 300" xml:space="preserve">
<path fill-rule="evenodd" clip-rule="evenodd" fill="#555555" d="M44.88,79.92c0.64-0.16,1.28-0.459,1.92-0.46
	c21.12-0.024,42.24-0.02,63.36-0.02c48.641,0,97.28,0,145.92,0c-0.506,0.604-0.97,1.25-1.524,1.806
	c-19.421,19.474-38.855,38.935-58.278,58.409c-10.727,10.755-21.4,21.563-32.169,32.275c-3.8,3.78-8.075,6.969-13.781,6.819
	c-5.456-0.144-9.604-3.192-13.285-6.874c-30.077-30.076-60.129-60.177-90.196-90.263C46.237,81.002,45.538,80.482,44.88,79.92z"/>
<path fill-rule="evenodd" clip-rule="evenodd" fill="#555555" d="M44.88,221.52c0-0.159,63.228-62.189,69.125-67.944
	c4.545,4.657,16.586,15.994,24.458,22.942c2.949,2.602,6.896,5.816,12.219,5.816s10.655-3.301,12.727-5.237
	c7.063-6.603,23.05-22.153,24.17-23.173c22.955,22.518,45.718,44.849,68.907,67.596C185.451,221.52,115.166,221.52,44.88,221.52z"/>
<path fill-rule="evenodd" clip-rule="evenodd" fill="#555555" d="M44.88,215.28c0-43.521,0-87.04,0-130.561
	c0.488,0.393,62.919,62.567,66.25,65.68C110.104,151.497,50.222,210.123,44.88,215.28z"/>
<path fill-rule="evenodd" clip-rule="evenodd" fill="#555555" d="M255.898,215.071c-21.994-21.555-43.667-42.794-65.662-64.35
	c44.171-44.641,44.171-44.641,65.526-66.002C255.763,126.348,255.898,171.408,255.898,215.071z"/>
</svg>
