<?xml version="1.0" encoding="utf-8"?>
<!-- Generator: Adobe Illustrator 19.0.0, SVG Export Plug-In . SVG Version: 6.00 Build 0)  -->
<svg version="1.1" id="Italy" xmlns="http://www.w3.org/2000/svg" xmlns:xlink="http://www.w3.org/1999/xlink" x="0px" y="0px"
	 viewBox="-276 375.7 42 42" style="enable-background:new -276 375.7 42 42;" xml:space="preserve">
<style type="text/css">
	.st0{fill:#009246;}
	.st1{fill:#ED2939;}
	.st2{fill:none;stroke:#FFFFFF;stroke-width:13;stroke-miterlimit:10;}
	.st3{fill:none;stroke:#5B5B5B;stroke-width:2;stroke-miterlimit:10;}
</style>
<path class="st0" d="M-255,413.4c0,1.8-0.7,3.3-1.7,3.3h-16.7c-0.9,0-1.7-1.5-1.7-3.3V380c0-1.8,0.7-3.3,1.7-3.3h16.7
	c0.9,0,1.7,1.5,1.7,3.3V413.4z"/>
<path class="st1" d="M-235,413.4c0,1.8-0.7,3.3-1.7,3.3h-16.7c-0.9,0-1.7-1.5-1.7-3.3V380c0-1.8,0.7-3.3,1.7-3.3h16.7
	c0.9,0,1.7,1.5,1.7,3.3C-235,380-235,413.4-235,413.4z"/>
<line class="st2" x1="-255" y1="376.7" x2="-255" y2="416.7"/>
<path class="st3" d="M-235,413.4c0,1.8-1.5,3.3-3.3,3.3h-33.3c-1.8,0-3.3-1.5-3.3-3.3V380c0-1.8,1.5-3.3,3.3-3.3h33.3
	c1.8,0,3.3,1.5,3.3,3.3L-235,413.4L-235,413.4z"/>
</svg>
