<?xml version="1.0" encoding="utf-8"?>
<!-- Generator: Adobe Illustrator 19.0.0, SVG Export Plug-In . SVG Version: 6.00 Build 0)  -->
<svg version="1.1" id="Germany" xmlns="http://www.w3.org/2000/svg" xmlns:xlink="http://www.w3.org/1999/xlink" x="0px" y="0px"
	 viewBox="-28 30 42 42" style="enable-background:new -28 30 42 42;" xml:space="preserve">
<style type="text/css">
	.st0{fill:#723025;}
	.st1{fill:#FFFFFF;}
</style>
<path class="st0" d="M13,67.7c0,1.8-1.5,3.3-3.3,3.3h-33.3c-1.8,0-3.3-1.5-3.3-3.3V34.4c0-1.8,1.5-3.3,3.3-3.3H9.7
	c1.8,0,3.3,1.5,3.3,3.3V67.7L13,67.7z"/>
<g>
	<path class="st1" d="M-19.8,55.5c0.6-0.6,1.3-0.9,2.2-0.9s1.6,0.3,2.2,0.9c0.6,0.6,0.9,1.3,0.9,2.2s-0.3,1.6-0.9,2.2
		c-0.6,0.6-1.3,0.9-2.2,0.9s-1.6-0.3-2.2-0.9c-0.6-0.6-0.9-1.3-0.9-2.2S-20.4,56.1-19.8,55.5z"/>
	<path class="st1" d="M-12.8,49.7h8.5V54h-8.5V49.7z"/>
	<path class="st1" d="M-0.5,49.7H8V54h-8.5V49.7z"/>
</g>
</svg>
