<?xml version="1.0" encoding="utf-8"?>
<!-- Generator: Adobe Illustrator 16.0.0, SVG Export Plug-In . SVG Version: 6.00 Build 0)  -->
<!DOCTYPE svg PUBLIC "-//W3C//DTD SVG 1.1//EN" "http://www.w3.org/Graphics/SVG/1.1/DTD/svg11.dtd">
<svg version="1.1" id="Brazil" xmlns="http://www.w3.org/2000/svg" xmlns:xlink="http://www.w3.org/1999/xlink" x="0px" y="0px"
	 width="42px" height="42.002px" viewBox="0 0 42 42.002" enable-background="new 0 0 42 42.002" xml:space="preserve">
<path fill="#009246" d="M40.999,37.657c0,1.848-1.497,3.344-3.345,3.344H4.346c-1.848,0-3.345-1.496-3.345-3.344V4.345
	c0-1.848,1.497-3.344,3.345-3.344h33.309c1.848,0,3.345,1.496,3.345,3.344V37.657z"/>
<path fill="none" stroke="#FFFFFF" stroke-width="2" stroke-miterlimit="10" d="M41.003,37.657c0,1.848-1.498,3.344-3.346,3.344
	H4.347c-1.848,0-3.346-1.496-3.346-3.344V4.345c0-1.848,1.498-3.344,3.346-3.344h33.311c1.848,0,3.346,1.496,3.346,3.344V37.657z"/>
<polygon fill="#FEDF00" points="21,9.002 38.5,21.002 21,33.002 3.5,21.002 "/>
<circle fill="#002776" cx="21.001" cy="21.001" r="8.74"/>
<path fill="none" stroke="#FFFFFF" stroke-miterlimit="10" d="M12.613,18.549c0,0,11.378-0.277,13.683,9.4"/>
</svg>
