<?xml version="1.0" encoding="utf-8"?>
<!-- Generator: Adobe Illustrator 19.0.0, SVG Export Plug-In . SVG Version: 6.00 Build 0)  -->
<svg version="1.1" id="Brazil" xmlns="http://www.w3.org/2000/svg" xmlns:xlink="http://www.w3.org/1999/xlink" x="0px" y="0px"
	 viewBox="-276 375.7 42 42" style="enable-background:new -276 375.7 42 42;" xml:space="preserve">
<style type="text/css">
	.st0{fill:#009246;}
	.st1{fill:none;stroke:#5B5B5B;stroke-width:2;stroke-miterlimit:10;}
	.st2{fill:#FEDF00;}
	.st3{fill:#002776;}
	.st4{fill:none;stroke:#FFFFFF;stroke-miterlimit:10;}
</style>
<path class="st0" d="M-235,413.4c0,1.8-1.5,3.3-3.3,3.3h-33.3c-1.8,0-3.3-1.5-3.3-3.3V380c0-1.8,1.5-3.3,3.3-3.3h33.3
	c1.8,0,3.3,1.5,3.3,3.3L-235,413.4L-235,413.4z"/>
<path class="st1" d="M-235,413.4c0,1.8-1.5,3.3-3.3,3.3h-33.3c-1.8,0-3.3-1.5-3.3-3.3V380c0-1.8,1.5-3.3,3.3-3.3h33.3
	c1.8,0,3.3,1.5,3.3,3.3L-235,413.4L-235,413.4z"/>
<polygon class="st2" points="-255,384.7 -237.5,396.7 -255,408.7 -272.5,396.7 "/>
<circle class="st3" cx="-255" cy="396.7" r="8.7"/>
<path class="st4" d="M-263.4,394.2c0,0,11.4-0.3,13.7,9.4"/>
</svg>
