<?xml version="1.0" encoding="utf-8"?>
<!-- Generator: Adobe Illustrator 19.0.0, SVG Export Plug-In . SVG Version: 6.00 Build 0)  -->
<svg version="1.1" id="Germany" xmlns="http://www.w3.org/2000/svg" xmlns:xlink="http://www.w3.org/1999/xlink" x="0px" y="0px"
	 viewBox="-28 30 42 42" style="enable-background:new -28 30 42 42;" xml:space="preserve">
<style type="text/css">
	.st0{fill:#9DD0FF;stroke:#5B5B5B;stroke-miterlimit:10;}
	.st1{fill:#723025;}
</style>
<path class="st0" d="M12.9,67.7c0,1.8-1.5,3.3-3.3,3.3h-33.3c-1.8,0-3.3-1.5-3.3-3.3V34.4c0-1.8,1.5-3.3,3.3-3.3H9.6
	c1.8,0,3.3,1.5,3.3,3.3V67.7L12.9,67.7z"/>
<g>
	<path class="st1" d="M-19.5,62.1c0.9-0.1,1.6-0.5,2.1-1.2c0.3-0.5,0.8-1.5,1.5-3.1l8.2-20.3h1l8.3,19.4c0.9,2.2,1.6,3.6,2.1,4.2
		c0.5,0.6,1.1,0.9,2,0.9V63h-12v-0.9c1.2,0,2-0.2,2.4-0.3c0.4-0.2,0.6-0.6,0.6-1.2c0-0.3-0.1-0.7-0.3-1.3c-0.1-0.3-0.3-0.8-0.5-1.3
		l-0.9-2.2h-8.3c-0.5,1.5-0.9,2.4-1,2.9c-0.3,1-0.5,1.6-0.5,2.1c0,0.5,0.4,0.9,1.1,1.2c0.4,0.1,1.1,0.2,1.9,0.2V63h-7.6V62.1z
		 M-5.6,54.3l-3.6-8.6h-0.3l-3.3,8.6H-5.6z"/>
</g>
</svg>
