<svg xmlns="http://www.w3.org/2000/svg" width="30" height="30" viewBox="0 0 30 30">
  <defs>
    <style>
      .cls-1 {
        fill: #555;
      }
    </style>
  </defs>
  <g id="settings" transform="translate(0.079 0.963)">
    <path id="Path_1" data-name="Path 1" class="cls-1" d="M25.433,24.352l-2.4-.925a2.968,2.968,0,0,0-3.663,2.023c-.661,3.584.36,3.584-4.264,3.584-4.744,0-3.964.231-4.564-3.7A3.3,3.3,0,0,0,7.3,23.254l-.54.173c-3.9,1.5-3.123,1.5-5.1-1.734s-1.982-3.295.961-5.78a2.759,2.759,0,0,0,.06-3.815c-.661-.578-1.441-1.1-2.162-1.618A1.141,1.141,0,0,1,.151,8.8c.9-1.5,1.742-2.948,2.642-4.45a1.219,1.219,0,0,1,1.682-.578c.48.173.961.347,1.5.578,2.642,1.04,4.2.173,4.624-2.485.06-.462.18-.925.24-1.387A1.441,1.441,0,0,1,12.4-.963h5.045A1.411,1.411,0,0,1,19.007.482c.06.578.18,1.1.24,1.618.3,2.2,2.1,3.179,4.2,2.37,3.423-1.387,2.883-1.156,4.5,1.445.54.925,1.081,1.85,1.682,2.774a1.232,1.232,0,0,1-.42,1.907c-.48.347-1.021.751-1.5,1.1-1.742,1.329-1.8,3.295-.06,4.624,2.762,2.081,2.762,1.618.9,4.682-.54.867-1.021,1.792-1.561,2.659C26.814,24.179,26.394,24.584,25.433,24.352ZM20.148,14.007a4.9,4.9,0,0,0-5.225-4.913,4.814,4.814,0,0,0-5.045,4.913,4.893,4.893,0,0,0,5.165,4.971A4.877,4.877,0,0,0,20.148,14.007Z" transform="translate(0 0)"/>
  </g>
</svg>
