<?xml version="1.0" encoding="utf-8"?>
<!-- Generator: Adobe Illustrator 19.0.0, SVG Export Plug-In . SVG Version: 6.00 Build 0)  -->
<svg version="1.1" id="Layer_2" xmlns="http://www.w3.org/2000/svg" xmlns:xlink="http://www.w3.org/1999/xlink" x="0px" y="0px"
	 viewBox="50 -50 300 300" style="enable-background:new 50 -50 300 300;" xml:space="preserve">
<style type="text/css">
	.st0{fill:#999999;}
</style>
<path class="st0" d="M340.7,53.9c-7.2,0-14.4,0.2-21.6,0c-9.3-0.3-16.1,4-20.7,11.6c-2.8,4.6-5.1,9.7-7.3,14.7
	c-4.6,10.3-12.2,16.3-23.5,17.5c-5.3-13.3-10.6-26.2-15.8-39.2c-2.4-6.4-6.7-10.1-13.2-11.5c-2.9-0.6-5.8-1.5-8.8-1.8
	c-11.3-1.1-22.5-2-33.8-3.1c-1.6-0.1-4-0.9-4.5-2.1c-0.5-1.2,0.4-3.4,1.3-4.8c1.2-1.9,3-3.5,4.5-5.3c3.9-4.6,3.3-7.5-2.5-8.1
	c-7.5-0.8-15.3-0.8-22.8,0c-6.1,0.7-6.7,3.6-2.5,8.4c1,1.2,2.3,2.1,3,3.4c1.2,2,2.1,4.2,3.1,6.4c-2.2,0.8-4.3,2-6.6,2.3
	c-14.3,2-28.6,3.7-42.9,5.8c-4.8,0.7-8.5,3.8-10.1,8.6c-1,3-2.9,3.3-5.7,3.3c-9-0.1-18-0.2-27,0.3c-5.6,0.3-11.3,1.4-16.6,3.1
	c-7.6,2.5-10.6,7.8-10,15.8c0.9,10.4,5.5,19.4,13.1,26.2c7.5,6.7,16.2,12.1,24.2,18.3c1.7,1.3,2.8,3.3,3.8,5.2
	c2.4,4.7,3.6,10.4,7,14.1c11.4,12.4,23.9,23.7,40.7,28.4c19.8,5.6,40,5.6,60.4,3.5c21.2-2.2,37.6-13.2,52.4-27.3
	c3.3-3.1,5.4-7.5,8.3-11.1c1.3-1.7,3-3.6,4.9-4.2c12.4-3.9,21.8-11.4,27.3-23.2c2.9-6.3,5.5-12.8,7.8-19.4
	c5.3-15.3,14.3-26.9,30.3-32.1c1.4-0.4,2.7-1.3,4.1-2C340.9,55,340.8,54.5,340.7,53.9z M95.5,111.5c-11.4-7.5-20.7-17-24.7-30.8
	c-1.7-6.1-0.1-9,6.3-9.5c10.4-0.9,20.9-1,31.4-1.5C104.1,84,99.9,97.5,95.5,111.5z"/>
</svg>
