<?xml version="1.0" encoding="utf-8"?>
<!-- Generator: Adobe Illustrator 19.0.0, SVG Export Plug-In . SVG Version: 6.00 Build 0)  -->
<svg version="1.1" id="Layer_1" xmlns="http://www.w3.org/2000/svg" xmlns:xlink="http://www.w3.org/1999/xlink" x="0px" y="0px"
	 viewBox="1116 -50 300 300" style="enable-background:new 1116 -50 300 300;" xml:space="preserve">
<style type="text/css">
	.st0{fill:#FFFFFF;}
</style>
<path class="st0" d="M1337.6,92.7c11.3-1.2,18.9-7.2,23.5-17.5c2.2-5,4.5-10.1,7.3-14.7c4.6-7.6,11.4-11.9,20.7-11.6
	c7.2,0.2,14.4,0,21.6,0c0.1,0.6,0.2,1.1,0.3,1.7c-1.4,0.7-2.7,1.6-4.1,2c-16,5.2-25,16.8-30.3,32.1c-2.3,6.6-4.9,13.1-7.8,19.4
	c-5.5,11.8-14.9,19.3-27.3,23.2c-1.9,0.6-3.6,2.5-4.9,4.2c-2.9,3.6-5,8-8.3,11.1c-14.8,14.1-31.2,25.1-52.4,27.3
	c-20.4,2.1-40.6,2.1-60.4-3.5c-16.8-4.7-29.3-16-40.7-28.4c-3.4-3.7-4.6-9.4-7-14.1c-1-1.9-2.1-3.9-3.8-5.2
	c-8-6.2-16.7-11.6-24.2-18.3c-7.6-6.8-12.2-15.8-13.1-26.2c-0.6-8,2.4-13.3,10-15.8c5.3-1.7,11-2.8,16.6-3.1c9-0.5,18-0.4,27-0.3
	c2.8,0,4.7-0.3,5.7-3.3c1.6-4.8,5.3-7.9,10.1-8.6c14.3-2.1,28.6-3.8,42.9-5.8c2.3-0.3,4.4-1.5,6.6-2.3c-1-2.2-1.9-4.4-3.1-6.4
	c-0.7-1.3-2-2.2-3-3.4c-4.2-4.8-3.6-7.7,2.5-8.4c7.5-0.8,15.3-0.8,22.8,0c5.8,0.6,6.4,3.5,2.5,8.1c-1.5,1.8-3.3,3.4-4.5,5.3
	c-0.9,1.4-1.8,3.6-1.3,4.8c0.5,1.2,2.9,2,4.5,2.1c11.3,1.1,22.5,2,33.8,3.1c3,0.3,5.9,1.2,8.8,1.8c6.5,1.4,10.8,5.1,13.2,11.5
	C1327,66.5,1332.3,79.4,1337.6,92.7z M1166.5,106.5c4.4-14,8.6-27.5,13-41.8c-10.5,0.5-21,0.6-31.4,1.5c-6.4,0.5-8,3.4-6.3,9.5
	C1145.8,89.5,1155.1,99,1166.5,106.5z"/>
</svg>
