<?xml version="1.0" encoding="utf-8"?>
<!-- Generator: Adobe Illustrator 24.0.1, SVG Export Plug-In . SVG Version: 6.00 Build 0)  -->
<svg version="1.1" id="Layer_1" xmlns="http://www.w3.org/2000/svg" xmlns:xlink="http://www.w3.org/1999/xlink" x="0px" y="0px"
	 viewBox="0 0 612 612" style="enable-background:new 0 0 612 612;" xml:space="preserve">
<style type="text/css">
	.st0{fill:#FBC602;}
	.st1{fill:#FDD237;}
	.st2{fill:#BD9501;}
	.st3{fill:#E8B431;}
	.st4{fill:#DCAF05;}
</style>
<path class="st0" d="M325.26,581.25c-20.58,1.27-41.06,0.32-61.37-3.22c-69.09-12.03-125.81-45.4-169.83-99.89
	c-31.3-38.74-50.63-83-57.43-132.38c-10.37-75.3,6.53-144.12,52.13-205c43.1-57.55,100.66-92.81,171.48-106.03
	c25.35-4.73,50.89-5.84,76.55-2.91c-13.38,15.46-25.41,31.93-36.7,48.96c-0.8,0.87-1.87,0.67-2.87,0.69
	c-14.18,0.22-28.06,2.61-41.77,5.93c-27.16,6.56-52.1,18.11-75.01,34.04c-15.97,11.11-30.38,23.98-42.85,38.9
	c-14.46,17.28-26.27,36.24-35.21,56.97c-11.36,26.36-17.04,53.95-18.17,82.53c-0.49,12.48,0.52,24.9,2.23,37.26
	c2.96,21.43,8.73,42.09,17.82,61.7c13.56,29.23,32.14,54.81,56.51,76.1c13.3,11.62,27.72,21.56,43.24,29.89
	c27.16,14.57,56.26,22.66,86.89,25.5c2.28,5.1,5.97,9.34,8.72,14.12c4.63,8.01,10.55,15.07,15.53,22.8
	C318.28,572.07,322.76,575.95,325.26,581.25z"/>
<path class="st1" d="M325.26,581.25c-2.51-5.3-6.99-9.19-10.12-14.05c-4.98-7.73-10.9-14.79-15.53-22.8
	c-2.76-4.76-6.44-9.01-8.72-14.12c5.6,0.21,11.2,0.44,16.8,0.65c4.96,0.19,9.9-0.25,14.85-0.53c12.58-0.73,24.93-2.49,37.23-5.28
	c21.41-4.86,41.54-12.78,60.59-23.6c22.23-12.61,41.78-28.49,58.51-47.82c15.01-17.35,27.12-36.5,36.47-57.47
	c12.35-27.69,18.18-56.76,18.96-86.9c0.38-14.49-1.21-28.88-3.62-43.2c-4.88-28.9-15.55-55.58-31.05-80.26
	c-12.52-19.92-27.88-37.47-46.1-52.57c-19-15.75-39.88-28.16-62.77-37.19c-15.05-5.93-30.58-10.14-46.65-12.46
	c-12.09-1.75-24.2-2.93-36.41-2.8c-2.53-0.02-5.06-0.04-7.59-0.06c11.29-17.03,23.32-33.5,36.7-48.96
	c11.01,0.23,21.75,2.44,32.42,4.83c36.03,8.04,69.17,22.73,99.29,44.09c35.33,25.07,63.37,56.65,83.91,94.81
	c18.5,34.38,29.15,71.05,31.93,110.02c3.76,52.69-6.19,102.66-31.15,149.19c-33.85,63.11-84.83,106.87-152.13,131.4
	c-24.1,8.78-49.1,13.47-74.67,15.23C326.02,581.42,325.64,581.3,325.26,581.25z"/>
<path class="st2" d="M300.09,80.79c2.53,0.02,5.06,0.04,7.6,0.06c-0.31,1.94-1.85,1.42-3.02,1.42c-6.26,0.02-12.33,1.39-18.47,2.34
	c-14.98,2.34-29.5,6.59-43.5,12.25c-10.58,4.28-20.86,9.26-30.77,15.1c-7.8,4.6-15.35,9.56-22.53,14.97
	c-12.51,9.43-23.63,20.42-34.04,32.17c-12.92,14.58-23.35,30.78-31.99,48.1c-6.42,12.86-11.41,26.34-15.09,40.29
	c-4.25,16.15-6.97,32.51-7.23,49.18c-0.15,9.79-0.52,19.59,0.58,29.4c0.99,8.82,1.92,17.64,3.81,26.3
	c3.19,14.67,7.57,28.94,13.62,42.73c6.51,14.86,14.53,28.81,23.93,41.98c10.25,14.36,22.39,26.98,35.54,38.72
	c11.63,10.39,24.38,19.19,37.94,26.68c13.82,7.63,28.25,13.99,43.49,18.44c14.77,4.3,29.7,7.61,45.1,8.57
	c1.1,0.07,2.42-0.25,2.64,1.44c-5.6-0.21-11.2-0.44-16.8-0.65c-30.62-2.84-59.73-10.93-86.89-25.5
	c-15.53-8.33-29.94-18.27-43.24-29.89c-24.37-21.29-42.96-46.87-56.51-76.1c-9.09-19.61-14.87-40.27-17.82-61.7
	c-1.71-12.36-2.72-24.78-2.23-37.26c1.13-28.58,6.81-56.17,18.17-82.53c8.94-20.73,20.76-39.69,35.21-56.97
	c12.48-14.92,26.88-27.8,42.85-38.9c22.92-15.94,47.85-27.48,75.01-34.04c13.72-3.32,27.6-5.71,41.77-5.93
	C298.22,81.47,299.29,81.67,300.09,80.79z"/>
<path class="st3" d="M307.68,530.94c-0.22-1.69-1.53-1.37-2.64-1.44c-15.39-0.96-30.32-4.26-45.1-8.57
	c-15.24-4.44-29.67-10.81-43.49-18.44c-13.57-7.49-26.32-16.28-37.94-26.68c-13.15-11.74-25.29-24.36-35.54-38.72
	c-9.4-13.17-17.42-27.12-23.93-41.98c-6.04-13.79-10.43-28.07-13.62-42.73c-1.88-8.67-2.82-17.49-3.81-26.3
	c-1.1-9.81-0.74-19.61-0.58-29.4c0.26-16.67,2.98-33.04,7.23-49.18c3.68-13.96,8.67-27.44,15.09-40.29
	c8.65-17.32,19.08-33.52,31.99-48.1c10.42-11.75,21.53-22.74,34.04-32.17c7.18-5.41,14.72-10.36,22.53-14.97
	c9.91-5.84,20.2-10.82,30.77-15.1c14-5.67,28.51-9.91,43.5-12.25c6.13-0.96,12.21-2.34,18.47-2.34c1.16,0,2.71,0.51,3.02-1.42
	c12.22-0.12,24.32,1.06,36.41,2.8c16.07,2.32,31.61,6.53,46.65,12.46c22.89,9.02,43.76,21.43,62.77,37.19
	c18.22,15.1,33.59,32.65,46.1,52.57c15.5,24.68,26.17,51.36,31.05,80.26c2.41,14.32,4,28.71,3.62,43.2
	c-0.78,30.14-6.62,59.21-18.96,86.9c-9.35,20.98-21.46,40.13-36.47,57.47c-16.73,19.33-36.28,35.2-58.51,47.82
	c-19.06,10.81-39.18,18.75-60.59,23.6c-12.29,2.79-24.65,4.55-37.23,5.28C317.58,530.7,312.65,531.13,307.68,530.94z M306.17,364.85
	c-0.18-0.17-0.35-0.45-0.56-0.49c-11.73-1.84-23.21-4.78-34.52-8.3c-2.96-0.92-3.28,0.57-3.32,2.76c-4.04,0.16-7.64-1.72-11.47-2.51
	c-2.95-0.61-3.68,0.53-3.69,2.99c-0.03,4.82-0.21,9.62-0.72,14.43c-0.97,9.31-1.52,18.66-2.26,27.99c-0.12,1.49-0.11,2.47,1.8,3.08
	c11.12,3.58,22.45,6.2,34.06,7.48c2.29,0.25,3.12,1.13,3.09,3.32c-0.06,5.48,0.15,10.96-0.08,16.42c-0.13,3.12,0.77,4.17,4.02,4.12
	c12.99-0.18,25.98-0.08,38.97-0.08c4.08,0,8.17-0.1,12.25,0.05c2.37,0.08,3.11-0.83,3.06-3.12c-0.11-5.74,0.2-11.5-0.12-17.22
	c-0.21-3.69,1.06-5.27,4.57-6.49c14.67-5.09,25.24-14.8,31.19-29.23c4.88-11.84,6.13-24.06,5.1-36.9
	c-1.82-22.63-12.87-38.6-32.25-49.68c-9.7-5.54-19.95-10-29.47-15.79c-4.37-2.66-9.23-5.34-8.89-11.74
	c0.27-5.18,3.51-8.21,7.65-10.58c1.27,0.05,2.57-0.08,3.81,0.15c10.29,2.01,20.61,3.91,30.84,6.23c3.01,0.68,2.91-0.69,2.95-2.61
	c3.71,0.86,7.44,1.59,11.1,2.63c2.18,0.62,3.14,0.57,3.48-2.13c1.33-10.55,3.01-21.05,4.41-31.59c0.7-5.27,1.13-10.58,1.61-15.88
	c0.11-1.28,0.11-2.53-1.77-2.76c-10.18-1.23-20.27-3.29-30.52-3.78c-2.83-0.14-3.78-1.12-3.74-3.89c0.12-7.65-0.02-15.31,0.08-22.96
	c0.03-2.29-0.68-3.2-3.06-3.12c-4.07,0.15-8.16,0.05-12.25,0.05c-12.88,0-25.77,0.11-38.66-0.08c-3.27-0.05-4.47,0.69-4.36,4.2
	c0.27,7.9,0.08,15.82,0.09,23.72c0,1.77-0.1,3.31-2.44,3.55c-4.56,0.45-8.56,2.73-12.34,4.88c-14.5,8.28-23.77,20.9-27.96,36.96
	c-2.83,10.82-2.37,21.95-0.56,32.93c1.42,8.62,4.73,16.61,9.79,23.79c8.2,11.64,20.35,18.11,32.49,24.52
	c7.98,4.21,16.14,8.11,23.23,13.77c4.27,3.41,5.64,8.23,4.32,13.37C314,361.66,311.14,364.7,306.17,364.85z"/>
<path class="st0" d="M362.16,259.14c-0.04,1.93,0.06,3.3-2.95,2.62c-10.22-2.32-20.54-4.23-30.84-6.23
	c-1.23-0.24-2.54-0.11-3.81-0.15c-4.79-1.19-9.6-1.18-14.34,0.11c-5.09,1.39-7.93,4.92-8.51,10.12c-0.48,4.3,1.88,7.05,5.22,9.45
	c8.75,6.25,18.72,10.21,28.06,15.36c12.8,7.05,24.13,15.53,31.1,28.88c7.38,14.15,8.33,29.23,5.93,44.52
	c-3.52,22.46-15.07,38.85-37.51,46.09c-2.41,0.77-3.13,1.97-3.09,4.38c0.14,7.27,0.05,14.54,0.06,21.81
	c-12.99,0-25.98-0.1-38.97,0.08c-3.25,0.05-4.15-1-4.02-4.12c0.23-5.47,0.02-10.95,0.08-16.42c0.02-2.21-0.81-3.08-3.09-3.32
	c-11.61-1.27-22.94-3.9-34.06-7.48c-1.91-0.61-1.92-1.59-1.8-3.08c0.75-9.33,1.29-18.68,2.26-27.99c0.5-4.82,0.69-9.61,0.72-14.43
	c0.02-2.47,0.74-3.61,3.69-2.99c3.84,0.79,7.44,2.67,11.47,2.5c0.95,0.94,2.15,1.23,3.42,1.5c6.42,1.39,12.83,2.83,19.24,4.25
	c5.23,1.16,10.47,1.71,15.74,0.28c4.96-0.15,7.83-3.19,8.94-7.51c1.32-5.14-0.05-9.96-4.32-13.37c-7.09-5.65-15.26-9.56-23.23-13.77
	c-12.14-6.41-24.29-12.89-32.49-24.52c-5.06-7.18-8.36-15.17-9.79-23.79c-1.82-10.98-2.27-22.1,0.56-32.93
	c4.19-16.05,13.46-28.68,27.96-36.96c3.78-2.15,7.79-4.43,12.34-4.88c2.34-0.23,2.44-1.77,2.44-3.55
	c-0.02-7.91,0.18-15.82-0.09-23.72c-0.12-3.51,1.09-4.24,4.36-4.2c12.88,0.18,25.77,0.08,38.65,0.08
	c-0.01,8.67,0.02,17.35-0.03,26.02c-0.01,2.1,0.12,3.73,2.91,3.85c10.54,0.45,20.88,2.59,31.32,3.84c1.56,0.19,2.05,0.66,1.95,2.41
	c-0.26,4.45-0.9,8.83-1.45,13.24c-1.18,9.57-2.25,19.14-3.37,28.71c-0.1,0.08-0.29,0.17-0.28,0.22c0.05,0.21,0.15,0.4,0.24,0.6
	C362.58,256.13,362.37,257.64,362.16,259.14z"/>
<path class="st2" d="M331.5,436.08c0-7.27,0.08-14.54-0.06-21.81c-0.05-2.41,0.68-3.61,3.09-4.38
	c22.43-7.23,33.99-23.63,37.51-46.09c2.39-15.28,1.45-30.37-5.93-44.52c-6.96-13.35-18.3-21.82-31.1-28.88
	c-9.34-5.15-19.31-9.11-28.06-15.36c-3.35-2.39-5.71-5.15-5.22-9.45c0.58-5.19,3.42-8.73,8.51-10.12c4.73-1.29,9.54-1.31,14.34-0.11
	c-4.14,2.37-7.38,5.41-7.65,10.58c-0.34,6.4,4.53,9.08,8.89,11.74c9.52,5.8,19.78,10.26,29.47,15.79
	c19.39,11.08,30.45,27.04,32.25,49.68c1.03,12.84-0.21,25.06-5.1,36.9c-5.95,14.44-16.52,24.16-31.19,29.23
	c-3.51,1.22-4.78,2.8-4.57,6.49c0.32,5.72,0.01,11.48,0.12,17.22c0.05,2.3-0.68,3.21-3.06,3.12
	C339.67,435.98,335.59,436.08,331.5,436.08z"/>
<path class="st2" d="M362.84,253.81c1.12-9.57,2.19-19.15,3.37-28.71c0.54-4.41,1.19-8.79,1.45-13.24c0.1-1.76-0.38-2.23-1.95-2.41
	c-10.45-1.26-20.79-3.39-31.32-3.84c-2.79-0.12-2.93-1.75-2.91-3.85c0.05-8.67,0.02-17.35,0.03-26.02c4.08,0,8.17,0.1,12.25-0.05
	c2.37-0.08,3.09,0.82,3.06,3.12c-0.1,7.65,0.05,15.31-0.08,22.96c-0.05,2.77,0.9,3.75,3.74,3.89c10.26,0.5,20.34,2.54,30.52,3.78
	c1.88,0.23,1.88,1.48,1.77,2.76c-0.48,5.3-0.91,10.61-1.61,15.88c-1.4,10.54-3.08,21.04-4.41,31.59c-0.34,2.7-1.3,2.75-3.48,2.13
	c-3.65-1.04-7.39-1.77-11.1-2.63c0.21-1.5,0.43-3.01,0.64-4.51C362.81,254.36,362.83,254.09,362.84,253.81z"/>
<path class="st2" d="M306.17,364.85c-5.28,1.42-10.52,0.88-15.74-0.28c-6.41-1.42-12.82-2.86-19.24-4.25
	c-1.26-0.28-2.47-0.56-3.42-1.5c0.04-2.2,0.36-3.68,3.32-2.76c11.32,3.52,22.79,6.46,34.52,8.3
	C305.82,364.4,305.99,364.69,306.17,364.85z"/>
<path class="st4" d="M362.84,253.81c-0.02,0.28-0.03,0.54-0.04,0.82c-0.08-0.2-0.19-0.39-0.24-0.6
	C362.55,253.98,362.74,253.89,362.84,253.81z"/>
</svg>
