<?xml version="1.0" encoding="utf-8"?>
<!-- Generator: Adobe Illustrator 16.0.0, SVG Export Plug-In . SVG Version: 6.00 Build 0)  -->
<!DOCTYPE svg PUBLIC "-//W3C//DTD SVG 1.1//EN" "http://www.w3.org/Graphics/SVG/1.1/DTD/svg11.dtd">
<svg version="1.1" id="Layer_1" xmlns="http://www.w3.org/2000/svg" xmlns:xlink="http://www.w3.org/1999/xlink" x="0px" y="0px"
	 width="64px" height="64px" viewBox="0 0 64 64" enable-background="new 0 0 64 64" xml:space="preserve">
<path fill="none" stroke="#565656" stroke-width="3" stroke-miterlimit="10" d="M54.334,25c0,9.466-5.89,17.557-14.204,20.808
	c-2.52,0.985-5.262,17.026-8.13,17.026c-2.43,0-4.77-15.889-6.96-16.606C16.112,43.304,9.665,34.904,9.666,25
	C9.666,12.665,19.665,2.666,32,2.666C44.334,2.666,54.334,12.665,54.334,25z"/>
<circle fill="#565656" cx="32" cy="25" r="15.667"/>
<g>
	<path fill="#FF6D00" d="M19.452,28.682c0.45,0.288,1.494,0.738,2.593,0.738c2.035,0,2.665-1.296,2.646-2.269
		c-0.018-1.638-1.494-2.341-3.025-2.341h-0.882v-1.188h0.882c1.152,0,2.611-0.594,2.611-1.981c0-0.936-0.594-1.764-2.053-1.764
		c-0.936,0-1.836,0.414-2.34,0.774l-0.414-1.152c0.612-0.45,1.8-0.9,3.061-0.9c2.305,0,3.349,1.368,3.349,2.791
		c0,1.207-0.72,2.233-2.161,2.755v0.036c1.44,0.288,2.611,1.368,2.611,3.007c0,1.873-1.458,3.511-4.267,3.511
		c-1.314,0-2.467-0.415-3.043-0.792L19.452,28.682z"/>
	<path fill="#FF6D00" d="M34.987,19.913c-0.324-0.018-0.738,0-1.188,0.072c-2.485,0.414-3.799,2.232-4.069,4.159h0.054
		c0.558-0.738,1.53-1.351,2.827-1.351c2.071,0,3.529,1.495,3.529,3.781c0,2.143-1.458,4.124-3.889,4.124
		c-2.503,0-4.141-1.945-4.141-4.988c0-2.305,0.828-4.123,1.98-5.275c0.972-0.954,2.269-1.548,3.745-1.729
		c0.468-0.072,0.864-0.09,1.152-0.09V19.913z M34.537,26.665c0-1.675-0.954-2.683-2.413-2.683c-0.954,0-1.836,0.594-2.269,1.44
		c-0.108,0.18-0.18,0.414-0.18,0.702c0.036,1.927,0.918,3.349,2.575,3.349C33.619,29.474,34.537,28.339,34.537,26.665z"/>
	<path fill="#FF6D00" d="M45.319,24.522c0,3.979-1.476,6.176-4.069,6.176c-2.287,0-3.835-2.143-3.871-6.014
		c0-3.925,1.693-6.085,4.069-6.085C43.915,18.599,45.319,20.795,45.319,24.522z M38.963,24.702c0,3.043,0.938,4.771,2.377,4.771
		c1.621,0,2.395-1.891,2.395-4.879c0-2.881-0.738-4.771-2.376-4.771C39.973,19.823,38.963,21.515,38.963,24.702z"/>
</g>
</svg>
